<?xml version="1.0" encoding="utf-8"?>
<svg version="1.1" id="Canada" xmlns="http://www.w3.org/2000/svg" xmlns:xlink="http://www.w3.org/1999/xlink" x="0px" y="0px" viewBox="0 0 612 792" enable-background="new 0 0 612 792" xml:space="preserve">
	 <style id="style_css_sheet" type="text/css">
	 		polygon, path {fill:#d0d0d0;fill-rule:nonzero;stroke:#000000;stroke-width:0.25;}
	 </style>
<g id="Nova_Scotia">
			<polygon points="496.2,523.5 500.8,525 499.9,525.5 495.9,528 490.9,528.8 494.8,524.7   " />
			<polygon points="500.9,525.2 501.3,525.5 503.8,529 499.9,531 499.4,528.8 495.9,528 499.9,525.5   " />
			<polygon points="508.3,524.3 508.1,526.3 511,526.2 507.4,528.3 506.5,525.7   " />
			<polygon points="501.4,525 506.5,525.7 507.4,528.3 503.8,529 501.3,525.5   " />
			<polygon points="516,515 516.1,515.3 513.7,523.5 512.6,525.7 511.6,526.7 510.4,523   " />
			<polygon points="517.7,520.8 517.5,522.3 520.4,522 520.5,523.8 518,525.7 515.4,525 517.4,523.3 514.8,523.8   " />
			<polygon points="517,515.3 517.4,518.5 515.8,521.8 517,521 513.7,523.5 516.1,515.3   " />
			<polygon points="515.4,525 518,525.7 511.6,526.7 512.6,525.7   " />
			<polygon points="503.9,529.3 506.9,531.5 499.5,534.5 498.3,533.5 498.5,535.8 496,534 495,533 499.9,531 503.8,529   " />
			<polygon points="511.3,526.3 512.3,527.5 510.8,528.3 513.7,529.3 509,529.3 509.9,530.3 508.8,531 508.4,531.2 506.9,531.5 503.9,529.3     503.8,529 507.4,528.3 511,526.2   " />
			<polygon points="499.4,528.8 499.9,531 495,533 494.4,532.7 493.9,532.2 495.2,530.5   " />
			<polygon points="488.3,537.5 486.3,542.5 485,540 484.1,541.3 483.9,539   " />
			<polygon points="494.4,532.7 495,533 496,534 494.3,535.5 495,537.2 493,537.8 491.5,535.5 490.9,535 492,534 493.9,532.2   " />
			<polygon points="492,534 490.9,535 488.7,536.7 486.4,534 490.6,530.7   " />
			<polygon points="491.5,535.5 493,537.8 490.8,540.3 488.3,537.5 488.7,536.7 490.9,535   " />
			<polygon points="486,533.8 486.4,534 488.7,536.7 488.3,537.5 483.9,539 485.7,534.5 483.8,536   " />
			<polygon points="488.3,537.5 490.8,540.3 488,543.5 486.3,542.5   " />
			<polygon points="493.6,528.5 495.2,530.5 493.9,532.2 492,534 490.6,530.7   " />
</g>
<g id="New_Brunswick">
			<polygon points="476.6,527.3 476.8,527.3 479.6,527.3 481.7,527.3 482.2,528.8 482.2,529.5 482.2,530.3 477.2,530.3   " />
			<polygon points="485.7,520.8 481.7,527.3 479.6,527.3 483.8,520.7   " />
			<polygon points="486,508.6 486.8,510.7 491.8,509 492.5,509.8 491.3,511.9 485.9,513.7 483.8,511.2 483.6,511.2   " />
			<polygon points="490.1,527 482.2,530.3 482.2,529.5 489.9,526.3   " />
			<polygon points="485.7,520.8 488.3,521.3 488.7,522.5 482.2,528.8 481.7,527.3   " />
			<polygon points="483.8,511.2 485.9,513.7 491.3,511.9 488.7,514.8 491.7,515 485.7,520.8 483.8,520.7 479.9,520.2 482,519.5 480.7,516     478.9,512.7 483.6,511.2   " />
			<polygon points="492.2,522.8 493.3,524.7 490.1,527 489.9,526.3 489.4,524.7   " />
			<polygon points="491.7,515.8 490.6,516.8 493,521.3 488.3,521.3 485.7,520.8 491.7,515   " />
			<polygon points="493,521.3 497.6,522.3 496.2,523.5 494.8,524.7 493.3,524.7 492.2,522.8 489.4,524.7 488.7,522.5 488.3,521.3   " />
			<polygon points="489.4,524.7 489.9,526.3 482.2,529.5 482.2,528.8 488.7,522.5   " />
			<polygon points="478.9,512.7 480.7,516 479.9,517.3 474.7,518.7 474.7,515 475.2,511   " />
		  <polygon points="483.8,520.7 479.6,527.3 476.8,527.3 474.5,525.8 474.7,524 476.1,524 479.9,517.3 480.7,516     482,519.5 479.9,520.2   " />
		  <polygon points="474.7,524 474.7,518.7 479.9,517.3 476.1,524   " />
		  <polygon points="475.2,511 474.7,515 472.1,512.7 467.3,513.2 471.2,511.2 471.2,509.3   " />
		  <polygon points="483.1,507.1 486,508.6 483.6,511.2 478.9,512.7 475.2,511 471.2,509.3 471.2,508.6 473.7,507.6     475.8,507.6 476.9,508.8   " />
</g>
<g id="Prince_Edward_Island">
			<polygon points="506.9,519.7 508.1,519.8 505.6,520.7 504,523.8 503,520.2   " />
			<polygon points="498.7,519 503,520.2 504,523.8 499.4,521.8 498.5,519   " />
			<polygon points="496.4,515.3 495.9,517.3 497.3,519.8 498.5,519 499.4,521.8 494.1,518.3   " />
</g>
<g id="Newfoundland_and_Labrador">
			<polygon points="    497.8,443.5 511,444.3 514.4,445.7 510.2,451 506.5,453.1 510.9,452.2 514,457 519.6,457.9 520,460.6 518.6,461.3 519.6,462     518.6,462.3 519.3,465.1 522.3,463.7 522.6,463.9 525.9,462.5 526.3,461.3 530.1,460.1 534.7,459.9 536.3,461.8 533.6,463.7     534.9,464.7 538.2,463 542.5,463.9 540.8,463.9 543.8,467.1 541.4,468 541.1,469.5 543.8,471.1 539.2,471.4 544.5,472.6     541,472.6 544.5,474.5 535.9,480.7 535.9,476.2 497.4,476.2 498.5,475.7 497.8,473.5 495.9,472.3 499.9,470.9 498.7,469.2     495.5,470.4 494.8,478.1 493.3,479.5 488.5,477.4 487.8,475.2 484.8,475.7 483.4,473.5 482.8,475 482.8,468 480.4,470.9     477.2,469 476.9,467.1 479.3,467.5 479.8,464.9 474.5,460.1 475.5,458.9 474.7,457 478.7,454.8 476.8,452.4 477.8,452.4     481,454.8 480.4,452.4 480.1,449.5 483.4,452.4 486.6,454.8 490.1,452.7 496.9,455.5 497.9,455.3 496.9,454.1 497.4,452.9     499,452.4 499.9,450.5 498.3,450.3 500.3,449.3 497.6,448.8 498.5,447.4 497.3,445.2 499.5,444.3 496.2,444 497.3,442.8   " />
			<path d="M534.4,459.1l0.4,0.7l-4.5,0.2l-3.9,1.2l-0.4,1.2l-3.4,1.4l-0.4-0.2l3.9-2.9l3.9-1.2l2.3,0.2l-3.5-1L534.4,459.1L534.4,459.1z     M514.9,445.7l-1,1l2.3-0.5l-0.5,1.9l1.9-1.7l-1,3.4l1.9-0.7l-3,3.6l5.2-2.9l-1.2,1.9l3.4-0.5l-3,3.4l4.5-3.8l-1.4,1.9l2.5-1.2    l0.4,2.2l-1.2,0.2l4,0.7l2.6-1.4l0.7,1l-2.1,0.5l4.9,1.2l-13,4.3l7-1.4l-1.4,1.4l-7.7,1.9l-1-0.7l1.4-0.7l-0.4-2.6l-5.6-1    l-3.1-4.8l-4.4,1l3.6-2.2l4.2-5.3L514.9,445.7L514.9,445.7z M493.3,410.7h0.1l0.9,1l-1.9,1.2h3v1.9l0.4,3.4l4.4,1.4l-4,1.2    l4.4-0.5l2.3,2.2v1.7l-3.1,0.5l-0.9,1.9l6-1.4l-2.3,2.2h2.1l-4.2,1.9l4.7-1.7l1,1.2l-1.9,0.7l4.5,0.5l-0.1,1.9l-3.9,1l4.4,1    l-1.4,1l4,2.4l-3.4,1.2l1.4,1.4l-4.9-1.2l5.1,1.9l-3.4,0.5l1,1.9h4l-0.5,1.4l-13.3-0.7l-0.5-0.7l-1.7-0.7l1.6-1l-1.6-2.2l1.7-1.2    l1.4-7l-2.6-0.2l-2.1-2.9l3.5-2.6l-1.4-1.7l3.5-0.5l-8.2-1.4l3.5-0.7l-1.6-2.2l1.2-1.7l-3.5-0.5l1.7-2.9l-1.6-1l1.9-0.5l-1.7-1    L493.3,410.7L493.3,410.7z" />
			<polygon points="551.3,506.2 553.9,507.8 553.4,508.6 552.1,508.1 551.5,511.9 550.3,512.7 551.3,510.7 549,512.3 546.6,516.3 542.4,516.3     549.7,510.2 547.6,510.7 548.6,510 549.9,507.4 549.5,506.6   " />
			<polygon points="536.1,490.1 538,490.8 537,493.7 537.9,494.9 536.6,497.8 537.9,498 537.3,500.4 534.4,500.9 534.4,503.5 530.1,502.3     528.4,500.2 527.9,500.2 528.8,498.5 530,499.2 531.2,497.8 529.4,497.3 534.1,496.8 532.6,494.2   " />
			<polygon points="556.7,497.5 556,499.4 552.7,501.4 556,502.3 552.9,505.2 559,502.1 559.5,503.3 555.9,506.2 556,507.1 555,508.3 553.9,507.8     551.3,506.2 549.5,506.6 546.4,505.4 551.9,499.7 552,498.2 556.5,497.5   " />
			<path d="M551.1,495.1l-0.4,2.6l2.6-1.9l3.1,1.7l-4.5,0.7l-0.1,1.4l-5.2-1.4L551.1,495.1L551.1,495.1z M541.5,490.6l-0.4,1.9l4.2-0.5    l-3.9,2.2l1.9,0.7l-1.9,1.4l4.2-0.5l0.5,1.4l0.9-1.9l-0.9,2.6l-2.6,1.2l0.9-1.7l-6.6,0.5l-1.2-0.2l1.2-2.9L541.5,490.6    L541.5,490.6z" />
			<polygon points="546.2,498 546.6,498.2 551.9,499.7 546.4,505.4 542.9,505.7 541.9,503.3 531.4,505.9 534.4,503.5 534.4,500.9 537.3,500.4     537.9,498 544.5,497.5 543.6,499.2   " />
			<polygon points="528.4,500.2 530.1,502.3 534.4,503.5 531.4,505.9 523.3,510.2 522.8,508.3 528.4,503.8 523.6,503.5 526.5,501.4 525.3,502.6     526.8,503.3 527.9,500.2   " />
			<polygon points="542.9,479.1 545.7,479.3 544.6,481.7 541.9,481 541.7,482.9 543.8,483.4 541.7,486.7 538,490.8      536.1,490.1 532.6,494.2 534.1,496.8 529.4,497.3 531.5,495.6 531,494.4 533.8,488.2 535.7,487 534.1,486.2 537.3,484.6      536.1,483.8    " />
		  <polygon points="559.9,506.2 558,511.2 558.8,512.5 560.7,509 561.8,511.4 558.6,518.5 556,518.3 555.9,515.5 557.2,514.2 556.4,513.8 552.7,517     555,511.9 553.4,508.6 553.9,507.8 555,508.3 554.6,510 556.4,511.4 557.8,507.6   " />
			<polygon points="541.9,503.3 542.9,505.7 546.4,505.4 549.5,506.6 549.9,507.4 548.6,510 547.6,510.7 547.5,511 545.5,509.8 544.5,510     541.4,510.5 540.5,510.5 539,509.8 537.5,511.2 528.8,510.2 529.4,509.5 523.3,510.2 531.4,505.9   " />
</g>
<g id="Quebec">
		 <polygon points="439.3,526.3 439.5,526.3 439.9,526.7 437.4,527 437.6,526.8   " />
		 <path d="M480.4,452.4l0.5,2.4l-3.1-2.4H480.4L480.4,452.4z M475.9,452.4h0.9l1.9,2.4l-4,2.2l0.9,1.9l-1,1.2    l5.2,4.8l-0.5,2.6L477,467l0.1,1.9l3.4,1.9l2.3-2.9v7l0.7-1.4l1.4,2.2l3-0.5l-0.4,14.4h-5.2l-4.4,5.5h-2.1l0.5-1.9l-1.4-0.5    l0.5-8.9l-1.6-4.3h-4.7h-7.4V471v-0.2l0.1-18.2L475.9,452.4L475.9,452.4z M486.3,452.4H499l-1.6,0.5l-0.5,1.2l1,1.2l-1,0.2    l-6.9-2.9l-3.5,2.2l-3.1-2.4L486.3,452.4L486.3,452.4z" />
		 <polygon points="461.8,470.9 461.8,479.5 461.8,491.8 461.4,505.7 462.7,506.2 458.9,507.6 455.8,507.6     453.9,507.6 452.4,506.2 454.4,501.6 453.5,500.9 455.3,493.2 453.2,482.2 456.7,474.3 457,474 460.2,473.3 461.8,470.7   " />
		 <path d="M495.7,492.2l8.2,2.4l5.8,4.1l-8-0.7l-8.2-5L495.7,492.2L495.7,492.2z M527.1,482.4l-2.3,1.7l-0.1,0.7    l-6.3,5.5l-6.1-1.4l1,1.7l-4,0.7l-6.1-1.9l-15.7,0.2l0.4-14.4l0.7,2.2l4.7,2.2l1.6-1.4l0.7-7.7l3.1-1.2l1.2,1.7l-4,1.4l1.9,1.2    l0.7,2.2l-1,0.5H536v4.6L527.1,482.4L527.1,482.4z" />
		 <polygon points="469.1,479.5 473.8,479.5 475.4,483.8 474.9,492.7 476.3,493.2 475.8,495.1 477.8,495.1     476.9,497.3 472.6,497.5 469.8,500.2 466.8,499 466.8,494.9 464.7,491.8 461.8,491.8 461.8,479.5   " />
		 <polygon points="441.4,523.3 442.2,524 441.4,525 440.1,524.7 440.1,525 439,523.5 441.1,523   " />
		 <polygon points="441.1,528 439,528 442,525.7   " />
		 <polygon points="440.1,524.7 441.4,525 442,525.7 441.7,525.7 441.4,525.7 441.3,525.8 441.1,525.8 440.9,525.8     440.8,525.8 440.6,525.8 440.4,525.8 440.4,525.5 439.9,525 440.1,525   " />
		 <polygon points="418.9,392.7 435.7,396.5 434.7,395.5 440.8,393.6 453,400.3 450.7,401.5 450.9,402 452.4,403.7     461.2,404.4 461,406.1 462.4,406.8 464.7,404.7 465.6,406.6 462.9,409 464.4,411.4 462.8,412.8 464.9,415.7 463.3,418.3     466.3,419.1 464.5,422.4 463.2,422.2 461.6,422.7 462.9,424.1 465.4,421.9 469.8,421.7 471.4,422.7 471.4,425.3 473.4,424.1     476.1,426.7 479.6,424.8 481.2,424.6 482.8,422.2 485.7,422.2 485.9,422.2 486.6,422.4 486.8,422.7 487.1,422.7 488,423.4     488.3,423.6 488.2,423.4 487.8,423.1 486.8,422.4 486.3,421.9 486.4,418.8 487.4,417.9 488.9,419.1 487.6,415 490.6,413.8     489.9,412.6 491.5,410.2 493.4,410.7 493.3,410.7 491.3,411.1 493,412.1 491.1,412.6 492.7,413.5 490.9,416.4 494.4,416.9     493.3,418.6 494.8,420.7 491.3,421.5 499.5,422.9 496,423.4 497.4,425.1 493.9,427.7 496,430.6 498.7,430.8 497.3,437.8     495.5,439 497,441.1 495.5,442.1 497.3,442.8 496.2,444 499.5,444.3 497.3,445.2 498.5,447.4 497.6,448.8 500.3,449.3     498.3,450.3 499.9,450.5 499,452.4 486.3,452.4 483.4,452.4 480.1,449.5 480.4,452.4 477.8,452.4 476.8,452.4 475.9,452.4     461.9,452.4 461.8,470.7 460.2,473.3 457,474 452.8,477.6 452.8,480 449.5,484.1 447.4,486 447.2,484.8 443.7,486 440.1,491.5     436.7,496.1 437.6,498.7 436.4,500.2 431.7,499.7 430.3,499.7 421.3,499.7 412.2,499.7 407.2,499.7 407.3,480.2 408.4,478.8     411.1,481.2 411.3,478.8 410,477.9 412.8,475.5 413.1,472.6 411.6,471.6 411.9,469.2 410.8,466.3 410.8,463.9 409.3,460.8     410.8,460.1 408.1,458.9 407.6,457.9 408.6,457.5 406,455.3 417.2,450.3 421,447.1 424.5,441.6 424.2,435.1 422.6,431.8     423.4,431.3 412.6,423.4 412.6,421.5 418,418.1 416.3,417.6 417.2,415.5 420.1,414.7 419.2,412.1 417.3,409.9 419.1,408.7     417,408 418.7,406.3 414.7,406.8 417.7,403.7 417.2,401.5 418.9,401.1 415.9,399.6 414.8,395.3   " />
		 <polygon points="437.1,510.5 439.2,512.5 438.8,514.2 442.3,516.5 442.8,519.5 442.7,519.5 441.4,519.5     442.3,522.5 441.4,521.8 441.1,523 439,523.5 438.5,522.5 436.2,519.8 436.9,519.2 435.7,515.5 436.6,514.7 435.2,513.7     436.6,511.4 433.8,509.5   " />
		 <polygon points="440.8,511.7 443.4,514.2 447.4,514.2 449.5,516.5 448.8,517.8 447.1,518.5 443.9,516.8     442.3,516.5 438.8,514.2 439.2,512.5   " />
		 <polygon points="441.7,525.8 439.5,527 439.7,526.8 439.9,526.7 440.2,526.3 440.6,525.8 440.9,525.8 441.1,525.8     441.3,525.8 441.4,525.8   " />
		 <polygon points="442,527.8 442.5,528 442.3,528.8 440.8,529.5 439.9,528.8 441.8,527.8   " />
		 <polygon points="441.4,521.8 442.3,522.5 442.5,524.3 442.2,524 441.4,523.3 441.1,523   " />
		 <polygon points="440.8,491.8 442.7,498 446.7,501.6 449.8,501.8 451.1,506.4 449.7,507.6 444.6,507.6 436.4,500.2     437.6,498.7 436.7,496.1 440.1,491.5   " />
		 <polygon points="456.7,474.3 453.2,482.2 455.3,493.2 453.5,500.9 452.4,501.6 451.4,501.6 449.8,501.8     446.7,501.6 442.7,498 440.8,491.8 440.1,491.5 443.7,486 447.2,484.8 447.4,486 449.5,484.1 452.8,480 452.8,477.6 457,474   " />
		 <polygon points="431.7,499.7 436.4,500.2 444.6,507.6 449.7,507.6 450,508.1 451.1,509.3 449.2,511.2 449.5,512.5     447.9,512.5 447.4,514.2 443.4,514.2 440.8,511.7 439.2,512.5 437.1,510.5 433.8,509.5 430.3,509.5 430.3,508.8 430.3,499.7   " />
		 <polygon points="442.5,528.8 442.3,531.2 440.8,531.2 440.4,530 440.8,529.5 442.3,528.8   " />
		 <polygon points="443.6,524.3 443.6,524.5 443,526.8 442.2,526.2 443.7,523.5   " />
		 <polygon points="484.3,502.3 474.2,502.3 473.8,502.1 473.7,502.1 479.8,499.4   " />
		 <polygon points="455.1,516 453,517.3 451.4,514.7 452.4,514.2 449.5,512.5 449.2,511.2 451.1,509.3 455.7,515       " />
		 <polygon points="455.8,516.8 455.3,518.3 454.2,519 453.3,518   " />
		 <polygon points="457.9,520.2 455.7,520.7 454.2,519 455.3,518.3   " />
		 <polygon points="483.8,505.7 485.4,506.2 483.1,507.1 476.9,508.8 475.8,507.6 475.4,506.6 478.5,506.9     480.1,506.4 479.3,505.2 483.3,503.8   " />
		 <polygon points="452.7,523.3 453.5,525 449.8,525 448.7,523.3 449.2,521.8 451.1,520.8 450.7,522.8   " />
		 <polygon points="458.4,520.3 458.1,521.3 456.3,522.5 455.7,521 455.7,520.7 457.9,520.2   " />
		 <polygon points="450.2,519 451.1,519.8 451.1,520.8 449.2,521.8 447.1,521.3   " />
		 <polygon points="442.7,519.5 442.8,519.5 444.4,522.3 442.8,524.7 442.5,524.3 442.3,522.5 441.4,519.5   " />
		 <polygon points="455.7,523.8 459.4,525 458.3,528.3 455.4,529.3 453.9,525.2   " />
		 <polygon points="453,517.3 453.2,517.8 449.8,518.7 449.2,518.3 448.8,517.8 449.5,516.5 447.4,514.2 447.9,512.5     449.5,512.5 452.4,514.2 451.4,514.7   " />
		 <polygon points="464.7,491.8 466.8,494.9 466.8,499 469.8,500.2 463.7,506.6 462.9,506.4 462.7,506.2 461.4,505.7     461.8,491.8   " />
		 <polygon points="453.3,518 454.2,519 455.7,520.7 455.7,521 453.9,521 451.1,519.8 450.2,519   " />
		 <polygon points="451.4,527.8 451.4,528.8 451.3,528.5 449.8,528.3   " />
		 <polygon points="448.7,523.3 449.8,525 449.7,525.2 448.7,526.7 446.3,525.5 445.5,524.5 445.8,523.3   " />
		 <polygon points="459.7,515 462.1,517.8 461.6,519.7 460,518.3 457.4,516.3 459.4,514.8   " />
		 <polygon points="484.3,502.3 485.2,503 483.3,503.8 479.3,505.2 480.1,506.4 478.5,506.9 475.4,506.6 473.4,503.3     474.2,502.3   " />
		 <polygon points="443.2,528.3 444.8,528.5 444.1,530.7 442.3,531.2 442.5,528.8 442.3,528.8 442.5,528   " />
		 <polygon points="455.8,507.6 458.9,507.6 459.2,510.5 460.7,511.4 458.4,513.7 453.9,508.1 453.9,507.6   " />
		 <polygon points="453.9,508.1 458.4,513.7 455.3,516.5 455.1,516 455.7,515 451.1,509.3 450,508.1   " />
		 <polygon points="444.9,522.8 445.2,522.8 445.8,523.3 445.5,524.5 443.9,525 443.6,524.5 443.6,524.3 443.7,523.5       " />
		 <polygon points="443.9,516.8 446,519.8 446.2,521 444.4,522.3 442.8,519.5 442.3,516.5   " />
		 <polygon points="447.1,521.3 449.2,521.8 448.7,523.3 445.8,523.3 445.2,522.8   " />
		 <polygon points="448.7,526.7 447.8,527.8 446.9,527 446.3,525.5   " />
		 <polygon points="473.8,502.1 474.2,502.3 473.4,503.3 475.4,506.6 475.8,507.6 473.7,507.6 471,503.5 473.7,502.1       " />
		 <polygon points="452.2,526.3 451.4,527.8 449.8,528.3 447.8,528.3 447.8,527.8 448.7,526.7 449.7,525.2   " />
		 <polygon points="471,503.5 473.7,507.6 471.2,508.6 469.6,507.1 468,505.7 467.9,505.4   " />
		 <polygon points="460.3,523 459.4,525 455.7,523.8 456.3,522.5 458.1,521.3   " />
		 <polygon points="457.4,516.3 460,518.3 458.4,520.3 457.9,520.2 455.3,518.3 455.8,516.8   " />
		 <polygon points="444.3,527.5 445.8,527.5 445.5,529 444.8,528.5 443.2,528.3   " />
		 <polygon points="455.1,516 455.3,516.5 453.2,517.8 453,517.3   " />
		 <polygon points="451.4,528.8 453.9,529.5 453.3,531.2 450.2,531.2 451.3,528.5   " />
		 <polygon points="449.8,528.3 451.3,528.5 450.2,531.2 447.6,531.2 447.8,528.8 447.8,528.3   " />
		 <polygon points="453.5,500.9 454.4,501.6 452.4,506.2 453.9,507.6 453.9,508.1 450,508.1 449.7,507.6 451.1,506.4     449.8,501.8 451.4,501.6 452.4,501.6   " />
		 <polygon points="489.4,503.8 490.9,505 490.4,506.6 485.4,506.2 483.8,505.7 483.3,503.8 485.2,503 487.8,502.3       " />
		 <polygon points="443.9,525 444.3,527.5 443.2,528.3 442.5,528 443,526.8 443.6,524.5   " />
		 <polygon points="445.5,524.5 446.3,525.5 446.9,527 445.8,527.5 444.3,527.5 443.9,525   " />
		 <polygon points="466.1,506.9 468.2,508.6 465.8,510.5 464.4,509.8 463.8,509.8   " />
		 <polygon points="461.6,519.7 460.3,523 458.1,521.3 458.4,520.3 460,518.3   " />
		 <polygon points="495,502.1 494.6,504.2 490.4,506.6 490.9,505 489.4,503.8 487.8,502.3   " />
		 <polygon points="453.5,525 453.7,525 452.2,526.3 449.7,525.2 449.8,525   " />
		 <polygon points="455.7,521 456.3,522.5 455.7,523.8 453.9,525.2 453.7,525 453.5,525 452.7,523.3 453.9,521   " />
		 <polygon points="453.9,525.2 455.4,529.3 453.9,529.5 451.4,528.8 451.4,527.8 452.2,526.3 453.7,525   " />
		 <polygon points="461.4,513 464,515 462.1,517.8 459.7,515 459.4,514.8   " />
		 <polygon points="462.9,506.4 463.7,506.6 460.7,511.4 459.2,510.5 458.9,507.6 462.7,506.2   " />
		 <polygon points="447.1,518.5 446,519.8 443.9,516.8   " />
		 <polygon points="471.2,508.6 471.2,509.3 471.2,511.2 467.3,513.2 466.3,511.9 465.4,513.2 464.4,512.3     465.8,510.5 468.2,508.6 469.6,507.1   " />
		 <polygon points="446.9,527 447.8,527.8 447.8,528.3 447.8,528.8 445.5,529 445.8,527.5   " />
		 <polygon points="449.2,518.3 449.8,518.7 446.2,521 446,519.8 447.1,518.5 448.8,517.8   " />
		 <polygon points="489.5,498 487.6,499.7 487.8,502.3 485.2,503 484.3,502.3 479.8,499.4   " />
		 <polygon points="453.9,521 452.7,523.3 450.7,522.8 451.1,520.8 451.1,519.8   " />
		 <polygon points="464.4,509.8 465.8,510.5 464.4,512.3 465.4,513.2 464,515 461.4,513 463.8,509.8   " />
		 <polygon points="412.2,499.7 412.2,503 407.3,504.2 407.2,499.7   " />
		 <polygon points="436.2,519.8 438.5,522.5 436,524.3 434.8,524 432.7,521.8   " />
		 <polygon points="436,524.5 438.2,525 437.8,525.8 437.6,526.8 437.4,527 436.9,527 436.7,526.8 434.3,526.3 434.8,524 436,524.3   " />
		 <polygon points="430.3,499.7 430.3,508.8 424.2,510.7 424.2,513.2 421.7,514.3 416.4,513.5 419.2,511.7 419.2,510 414.7,510 414.3,505     418.6,505.4 418.6,503.5 421,503 421.3,499.7   " />
		 <polygon points="412.2,503 412.8,505.7 414.3,505 414.7,510 407.3,508.3 407.3,505.4 407.3,504.2   " />
		 <polygon points="432.7,521.8 434.8,524 434.3,526.3 431.3,527 431.2,526.7 429.1,524.7 428.7,523.8   " />
		 <polygon points="439,523.5 438.2,525 436,524.5 436,524.3 438.5,522.5   " />
		 <polygon points="431.2,526.7 428,528 425.7,527.5 425.6,525 426.6,525 429.1,524.7   " />
		 <polygon points="414.7,510 419.2,510 419.2,511.7 416.4,513.5 416.8,521.8 413.7,521 410.8,519.7 407.8,515 407.3,508.3   " />
		 <polygon points="495,502.1 487.8,502.3 487.6,499.7 489.5,498 494.1,499.7 495.5,501.6 493.6,501.1   " />
		 <polygon points="468,505.7 469.6,507.1 468.2,508.6 466.1,506.9 467.9,505.4   " />
		 <polygon points="421.3,499.7 421,503 418.6,503.5 418.6,505.4 414.3,505 412.8,505.7 412.2,503 412.2,499.7   " />
		 <polygon points="430.3,509.5 433.8,509.5 436.6,511.4 435.2,513.7 436.6,514.7 435.7,515.5 436.9,519.2 436.2,519.8 432.7,521.8 428.7,523.8     428.8,516.8 426.6,515.5 428.3,513.2 430.4,513.5 431.5,511.2   " />
		 <polygon points="430.3,508.8 430.3,509.5 431.5,511.2 430.4,513.5 428.3,513.2 426.6,515.5 428.8,516.8 428.7,523.8 429.1,524.7 426.6,525     421.7,514.3 424.2,513.2 424.2,510.7   " />
		 <polygon points="421.7,514.3 426.6,525 425.6,525 425.7,527.5 423.6,526.8 422.9,524.5 416.8,521.8 416.4,513.5   " />
		 <polygon points="442.2,524 442.5,524.3 442.8,524.7 442,525.7 441.4,525   " />
		 <polygon points="442.2,526.2 443,526.8 442.5,528 442,527.8 441.8,527.8   " />
		 <polygon points="447.8,528.8 447.6,531.2 444.1,530.7 444.8,528.5 445.5,529   " />
		 <polygon points="439.5,525.2 439.5,526.3 439.3,526.3 437.6,526.8 437.8,525.8   " />
		 <polygon points="439,523.5 440.1,525 439.9,525 439.5,525.2 437.8,525.8 438.2,525   " />
		 <polygon points="440.4,525.5 440.4,525.8 439.9,526.7 439.5,526.3 439.5,525.2 439.9,525   " />
	
</g>
<g id="Ontario">
			<polygon points="354.4,479.5 361.3,481.9 367,479.8 367,492 374,492 374,494.2 374,508.1 369.9,506.9 367.6,501.6 358.4,499.7 357.1,500.2     357.5,503 355.4,504.5 356.8,501.6 355.7,500.9 354.4,504.7 353.1,505.2 354.1,503 352.1,503.8 349.5,507.6 341.6,505.9     341.6,499.7 341.7,483.8   " />
			<path d="M353.6,437.8l7.7,6.7l13.8,6l16.5,1.2l-1.2,7l1.9,3.1v4.3l-1,2.4l4.2,5.3l-16.8,9.4l-5.8-4.3l-4.4-1l-1.6,1.9l-5.6,2.2l-7-2.4    l-12.6,4.3l-0.1,15.8l-16.5-0.7v0.7h-2.5V499h1.7v-0.7l-0.1-1.9l-3.1-1.9l-3.6,0.2v-6v-19.2l5.1-4.3l15-13.9l15.4-13.2    L353.6,437.8L353.6,437.8z" />
			<polygon points="395.5,473.8 400.6,477.4 402.3,481.2 405.6,482.6 407.3,480.2 407.2,499.7 407.3,504.2 407.3,505.4 393.9,505.4 392.5,504     389.3,504 389.3,498.2 383.6,498.2 383.6,496.1 378.6,496.1 378.6,494.2 375.1,494.2 374,494.2 374,492 367,492 367,479.8     368.5,477.9 372.9,478.8 378.6,483.1   " />
			<polygon points="439.9,529.5 440.4,530 440.8,531.2 435.3,531.5 437.9,529.8   " />
			<polygon points="405.8,539.3 406.7,541.3 407.2,542.5 404.9,541.5 404.7,541.3 403.7,540.3 404.7,539.5   " />
			<polygon points="416.3,531.8 417.5,535.8 413.1,538.7 412.9,538.3 412.2,532.8   " />
			<polygon points="417.8,527.8 418.6,530.3 421.5,537.7 417.8,538.8 417.8,536.7 417.5,535.8 416.3,531.8 414.8,528.8 416.8,528.3   " />
			<path d="M392.5,504l1.4,1.4v1.4h4.4v6l4.7,0.7l0.5,8.9l-3.4,1.9l-8.9-2.4l2.1-3.6v-2.6h-3.6v-2.2h-8l-0.1-9.6h7.9L392.5,504L392.5,504z     M399.1,516.3l-3,1.4l-0.7,3.4l5.1-0.5l0.7-4.1l-2.1-0.7V516.3L399.1,516.3z" />
			<polygon points="409.8,545 410.7,548 407.7,548 406,546.5 406.7,545.3   " />
			<polygon points="399.3,547.8 400.2,548.5 400.3,550.2 394.9,551 393.9,550.2   " />
			<polygon points="439.9,528.8 440.8,529.5 440.4,530 439.9,529.5 437.9,529.8   " />
			<polygon points="409.3,540.3 409.6,540.8 407.2,542.5 406.7,541.3   " />
			<polygon points="412.2,532.8 412.9,538.3 410.7,537.8 409.8,535 409.1,532.8 410.7,531.5   " />
			<polygon points="431.2,526.7 431.3,527 428,528   " />
			<polygon points="403.7,540.3 404.7,541.3 404.3,543.5 403.3,543.8 400.2,542 399,540.5 398.8,539.3 401.9,538.8   " />
			<polygon points="400.2,542 400.3,544.3 397.9,545.3 396.7,544.8 396.2,543.7 399,540.5   " />
			<polygon points="388.5,523.5 389.8,525.2 391.2,523.5 395.5,525.2 393.9,527.3 392.5,526.8 386,524.3   " />
			<polygon points="420.8,533 423.8,537.5 421.5,538.8 422.4,537.8 421.5,537.7 418.6,530.3 421,530.5   " />
			<polygon points="393.7,549.8 393.9,549.8 393.9,550.2 394.9,551 390.4,554.5 390.4,552.5 390.6,551 390.2,549.8   " />
			<polygon points="375.1,494.2 378.6,494.2 378.6,496.1 383.6,496.1 383.6,498.2 389.3,498.2 389.3,504 381.5,504 381.6,513.7 389.7,513.7     389.7,515.8 393.3,515.8 393.3,518.5 391.2,522 387.1,522 381,520.7 382.8,521.5 381.8,523 381,521.5 380.7,519.2 377.7,519.2     379.5,516.5 376.9,515.5 378.1,513.2 375.5,510.7 376.7,508.1 374,508.1 374,494.2   " />
			<polygon points="404.7,539.5 403.7,540.3 401.9,538.8 403.2,537.2 404.3,537   " />
			<polygon points="398.8,532.8 399.1,534.5 400.7,533.5 402.8,535 403.2,537.2 401.9,538.8 398.8,539.3 398.1,533.3   " />
			<polygon points="403.3,543.8 403.2,544.7 401.7,544.8 400.3,544.3 400.2,542   " />
			<polygon points="421.3,537.8 421,539 421.2,539.8 422.6,539.8 420.8,540.5 418.2,539   " />
			<polygon points="399.1,515.8 401.2,516.5 400.6,520.7 395.5,521 396.2,517.8 399.1,516.3   " />
			<polygon points="398.8,539.3 399,540.5 396.2,543.7 396.7,544.8 394.2,545 394.4,544.7 394.4,538.8   " />
			<polygon points="436.4,528.5 436.9,529.8 431.2,532.8 429.7,530.7 431.2,530 435.7,527.3 436.4,528.3   " />
			<polygon points="409.8,535 410.7,537.8 412.9,538.3 413.1,538.7 413.5,539.8 409.6,540.8 409.3,540.3 408.9,535.5   " />
			<polygon points="394.4,544.7 394.2,545 393.9,549.8 393.7,549.8 390.2,549.8 390.6,551 389.1,550.8 390.6,547   " />
			<polygon points="410.7,527 411.1,528 410.7,531.5 409.1,532.8 406.7,532.2 406.1,532.8 404.2,530.5   " />
			<polygon points="401.7,544.8 401.4,547.3 400.2,548.5 399.3,547.8 397.9,545.3 400.3,544.3   " />
			<polygon points="408.2,521.8 410.7,527 404.2,530.5 404.2,528.8 403.5,529.5 400.2,524.5 403.5,522.5   " />
			<polygon points="416.8,521.8 422.9,524.5 423.6,526.8 425.7,527.5 425.3,528 423.1,530.3 422.9,529.8 421,530.5 418.6,530.3 417.8,527.8     416.8,528.3 417,525.8 418.9,525.2 417.7,522.5 414.2,522.5 413.7,521   " />
			<polygon points="414.8,528.8 416.3,531.8 412.2,532.8 410.7,531.5 411.1,528 414.2,526.8   " />
			<polygon points="409.3,540.3 406.7,541.3 405.8,539.3 407.3,535.8 408.9,535.5   " />
			<polygon points="422.9,529.8 423.1,530.3 424.5,533.5 426.1,536.7 423.8,537.5 420.8,533 421,530.5   " />
			<polygon points="417.8,536.7 417.8,538.8 413.5,539.8 413.1,538.7 417.5,535.8   " />
			<polygon points="395.1,529.3 399,531.7 398.1,533.3 398.8,539.3 394.4,538.8 397.2,534.3   " />
			<polygon points="407.8,515 410.8,519.7 413.7,521 414.2,522.5 417.7,522.5 418.9,525.2 417,525.8 416.8,528.3 414.8,528.8 414.2,526.8 411.1,528     410.7,527 408.2,521.8 403.5,522.5 403,513.7   " />
			<polygon points="405.6,544.7 406.7,545.3 406,546.5 405.6,546.5 404.6,546 403.2,544.7 403.3,543.8 404.3,543.5   " />
			<polygon points="436.9,527.3 439.2,528.8 436.9,529.8 436.4,528.5 436.4,528.3 436.7,526.8 436.9,527   " />
			<polygon points="428.5,531.7 424.5,533.5 423.1,530.3 425.3,528   " />
			<polygon points="404.6,546 401.4,547.3 401.7,544.8 403.2,544.7   " />
			<polygon points="407.3,505.4 407.3,508.3 407.8,515 403,513.7 398.2,513 398.2,506.9 393.9,506.9 393.9,505.4   " />
			<polygon points="322.4,498.7 322.7,499 322.7,499.7 325.1,499.7 325.1,499 341.6,499.7 341.6,505.9 338.1,507.4 335.3,504.7 333.5,505.9     330,502.6 325.3,503.5 320,501.4   " />
			<polygon points="405.6,546.5 406,546.5 407.7,548 401.9,550.2 404.2,550.7 400.3,550.2 400.2,548.5 401.4,547.3 404.6,546   " />
			<polygon points="406.7,532.2 409.1,532.8 409.8,535 408.9,535.5 407.3,535.8 405.8,539.3 404.7,539.5 404.3,537 403.2,537.2 402.8,535     404.6,534.8 403.8,532.8 406.1,532.8   " />
			<polygon points="396.7,544.8 397.9,545.3 399.3,547.8 393.9,550.2 393.9,549.8 394.2,545   " />
			<polygon points="404.9,541.5 406.7,543.2 405.6,544.7 404.3,543.5 404.7,541.3   " />
			<polygon points="387.6,552.3 390.4,552.5 390.4,554.5 390,555.7 386.7,554.5   " />
			<polygon points="429.7,530.5 429.7,530.7 431.2,532.8 426.1,536.7 424.5,533.5 428.5,531.7   " />
			<polygon points="434.3,526.3 436.7,526.8 436.4,528.3 435.7,527.3 431.2,530 431.3,527   " />
			<polygon points="431.2,530 429.7,530.7 429.7,530.5 428.5,531.7 425.3,528 425.7,527.5 428,528 431.3,527   " />
</g>
<g id="Manitoba">
		<polygon points="306.8,493.4 310.4,493.4 310.4,497.5 308.1,497.5 308.1,499.7 305.9,499.7 305.4,495.6 305.5,494.2   " />
		<polygon points="310.6,489.6 310.4,493.4 306.8,493.4 306.9,492.5" />
		<polygon points="297.7,476.9 299.3,477.9 298,478.3 300.3,482.2     310.4,481.4 311.1,482.4 306.9,483.6 307.1,487.9 306.3,487.9 301,489.4 297.9,490.1 297.5,487.2 296.6,483.1 298,482.2     296.1,478.1   " />
		<polygon points="308.1,413.1 319.4,413.1 319.5,421 321.6,423.1     328.8,423.1 333.1,433.9 331.4,437.3 341.9,434.7 353,438 337.5,451.2 318.3,451 318.3,441.9 311,441.9 295.2,441.9 295.2,447.6     278.4,447.6 278,413.1   " />
		<polygon points="311,441.9 318.3,441.9 318.3,451 337.5,451.2 322.5,465.1     305.7,465.1 303.3,465.1 299.6,461.8 295.5,462.5 295.2,447.6 295.2,441.9   " />
		<polygon points="305.7,465.1 322.5,465.1 317.4,469.5 317.4,488.6 310.8,487.4 309.5,485.8 309.2,487.4 307.1,487.9 306.9,483.6 311.1,482.4     310.4,481.4 300.3,482.2 298,478.3 299.3,477.9 297.7,476.9 296.1,478.1 298,482.2 296.6,483.1 294.7,480.5 290,478.6     289.8,475.7 289.4,478.3 288.9,476.2 284.9,473.5 284.2,469.5 280,469.7 280,468 305,468.3 303.3,465.1   " />
		<polygon points="309.5,485.8 310.8,487.4 317.4,488.6 317.4,494.6 317.1,499.7 308.1,499.7 308.1,497.5 310.4,497.5 310.4,493.4 310.6,489.6     309.2,487.7 309.2,487.4   " />
		<polygon points="309.2,487.7 310.6,489.6 306.9,492.5 305.7,492 306.3,487.9 307.1,487.9 309.2,487.4   " />
		<polygon points="301.4,491.3 302.5,494.9 298.7,494.9 297.9,490.1 301,489.4   " />
		<polygon points="295.2,447.6 295.5,462.5 299.6,461.8 303.3,465.1 305,468.3 280,468 279.5,462.5 278.4,447.6   " />
		<polygon points="294.9,495.6 298.7,495.6 299.6,499.7 292.6,499.7 293.3,495.6   " />
		<polygon points="286.8,491.3 287,495.6 281.5,495.6 281.4,491.3   " />
		<polygon points="302.5,494.9 305.4,495.6 305.9,499.7 299.6,499.7 298.7,495.6 298.7,494.9   " />
		<polygon points="289.4,478.3 285.4,478.3 285.6,481.2 284,481.2 282.4,479.1 280.5,479.5 280.2,473.5 280,469.7 284.2,469.5 284.9,473.5     288.9,476.2   " />
		<polygon points="306.3,487.9 305.7,492 304.3,492.5 301.4,491.3 301,489.4   " />
		<polygon points="284,481.2 284.2,485 286.6,486 281.3,487.2 280.7,482.9 280.5,479.5 282.4,479.1   " />
		<polygon points="294,491.3 294.9,495.6 293.3,495.6 287,495.6 286.8,491.3   " />
		<polygon points="293.3,495.6 292.6,499.7 281.8,499.7 281.5,495.6 287,495.6   " />
		<polygon points="292.9,486.7 294,491.3 286.8,491.3 281.4,491.3 281.3,487.2 286.6,486   " />
		<polygon points="296.6,483.1 297.5,487.2 292.9,486.7 286.6,486 284.2,485 284,481.2 285.6,481.2 285.4,478.3 289.4,478.3 289.8,475.7 290,478.6     294.7,480.5   " />
		<polygon points="304.3,492.5 305.5,494.2 305.4,495.6 302.5,494.9 301.4,491.3   " />
		<polygon points="297.5,487.2 297.9,490.1 298.7,494.9 298.7,495.6 294.9,495.6 294,491.3 292.9,486.7   " />
		<polygon points="306.9,492.5 306.8,493.4 305.5,494.2 304.3,492.5 305.7,492   " />
</g>
<g id="Nunavut">
		<path d="M301.4,335.1l3.6,1.4l-1,0.2l0.9,3.4h0.9l-1.4-2.4l1-1.2l2.6,3.4l0.1-1.7l3.6,1.7l-1.4,2.2l2.1-1.9l1,2.9    l3.9,0.2l-7.9,3.1l-17.3-4.3l6.9-2.4l-1-2.2l3.4,1.2l-2.3-1.4L301.4,335.1L301.4,335.1z M320.4,318.5l1.6,0.5l0.1,1.2l-2.1,1.4    l5.8-1.2l-0.5,0.7l4.9,2.4l0.7,3.8l0.1,2.2l3.5-0.2l-0.7,2.6l-1.7,1.7l3.9,0.5l-6.1,2.6l15.2,1.7l-3,1.7l-3.4-0.7l5.8,3.6    l-2.3,3.4l1.4,0.2l1.6,0.7l0.5,1h0.7h0.5h-0.5l-0.1-0.2v-0.5l0.9-0.2l2.5,1l1,0.5l-0.4,1l2.3,0.2l-0.4-0.5l-3.1-1.4l-1.9-0.7    l1.4-2.4l0.5-3.1l3.6-1.7v7.7l0.1,10.1h-91.9l-0.1,15.8v2.4v1.7l-11.2-1l-10.6-1l-9.8-5.8h-11.7l-22.7-10.4l-0.5-0.2h-0.2    l-2.3-1.2l-8.9-1.9l-8.2-3.4l-2.8-1.2l-0.9-10.6l-0.4-3.6l28.1,7l-2.8-2.2l7.7,0.7l6.3,3.6l-0.7,1.2l-5.8-0.2l-1.4,0.7l0.9,1.4    l-2.5,0.7l13,1.7l-1.6,1l16.5-1.4l3.6-1.9l1.9,2.4l4-0.2l0.5,1.4l0.1,1l0.7,0.5l1.7,0.2l3,0.5l0.5,1.9l-4.4-1l8,6.5l-3.4-3.4    l0.4-1.9l3.6,1.7l-1.9-2.2l3.1-0.5l-3.6-0.7l-1-1.4l0.9-0.7l-2.8-2.2l2.1-2.2l8-1.2l-3.9-1.9l-5.4,1.2l1.9,1l-7.1-0.7l2.6-2.6    l14.9-2.4l2.8,3.1l-1.6,0.7l3.4,1.2l2.8,1.9l2.8-0.2l-1.2,2.2l1.4-1.4l-0.1-0.7l3.1-1l2.3,2.4l1.7,0.7l3.1,0.2l3.9,0.2l5.4,0.2    l1-1.4l11.2,1v0.2l0.1-0.2h-0.1l-1.6-2.6l4,2.4l-3.6-5l4.9,1l-0.1-2.2l3,0.5l2.3,1.7h0.4h1.2l1.6-0.2l-1.6,1.7l-1.6-0.2l1.4,1    l4.5-2.4l-1.4,5.3l0.1,3.4l3.1-1.4l-1.6,1.9l2.1,0.2l2.1-1l-3.5-3.8l1.4-2.6l6.1-1l-0.1,0.2h0.5l-0.1,0.2l0.1-0.2l-0.4-0.2    l0.4-0.2l0.9-0.2v-1l3.5-1.4h1v0.2l0.1,0.2l-0.1,0.2h0.1l0.1,0.2l1.2,0.2l5.1-0.2l0.9,1.2l-0.7,0.7l-3,0.7h0.5l2.6-0.7l1-1.2    l-1.4-1l-0.4,0.2h-6l-0.1-0.2h-0.1l0.1-0.2h0.1h-0.1l-0.1-0.2l0.1-0.2l-0.7-0.5l4.4-1l-6,1l1-1.9l-1.2-1.7l-1.6,2.4l-3.1,0.2    l0.1-1.9l1.7-2.6l4.4-1l-1.9,1.4l0.1,0.7l3.4-1.9l-0.4,2.2l1.4,0.7l1.6-2.9l-3-0.2l-0.7-0.2l-0.5-0.5L322,339l-1.4-2.2l-3.4,1    l-7.9-3.8l-0.1-2.4l4.2-1.2V329l-4.7-0.5l1.4-2.4l-0.7-1.4l3.4-1.2l2.6,2.9l-0.7-2.9l2.8-0.7l-4.7-0.7l7.5-2.2h-3.6l0.1-0.7    L320.4,318.5L320.4,318.5z M317.6,314.9l7.1,1.7l-2.1,1.7l-5.4,0.5l0.1-1.2L317.6,314.9L317.6,314.9z M286.8,308.7h0.1l11.5,2.2    l-3,2.4l4.4,1.2l-3.6-1.7l3.1-1.7l6.3,1.2l1,0.5l1.9,0.2l2.1,1.7l-3.1,1.2l2.1,0.7l0.1,1.4l-0.4,1.7l-9.6,1.7l-0.9-1l2.3-2.4    l-3,2.7l2.6,1.4l-3.6,2.2l-3-0.7l-8-6.5l-6.9-1l-5.4-3.6l2.8-2.6l7,3.1l4.9-0.7l1.7-0.7l-1.9-1.9l-1.7,0.2L286.8,308.7    L286.8,308.7z M243.8,308l6,1.7l-0.7-1.2l1.7-0.2l6.5,3.4l4.9,7.2l-2.1,0.7l4.9,2.2l0.1,1.9l-2.1,1.9l3.4,1.4l0.1,1.9l5.2,1.9    l1.4-0.5l-0.9-1.4l8.6,3.4v1.2l3-0.7l0.5,4.1h-2.2l-0.7-1.9l-1.2,2.2l-2.3-2.4l-3.5,1.4l1,1.4l-1.9,0.5l-2.5-1l-0.1-1.2l1.4,0.2    l-1.4-1l-5.4-0.7l5.1,1.2l-1.6,1l3.5,1.7l-1,3.1l5.1-3.4l2.1,1l-1.7,1.4l3,0.5l-6.9,2.9l-12.8-0.7l1.4-1.4L253,341l0.7-1.9    l-1.7-0.7l-4.4,3.8h-8.7l2.1,1l-3,1.2l-11.5,1.4l2.6-1.9l-4.7,1.7l1.2,0.5l-11.5,0.5l1-0.2l-3.9-2.4l1-1.9l0.9-1l-14.9-1l-6.1-3.1    l3-0.2l-1.6-0.5l-1-0.7l-0.5-1h24.1v1.2h1.7v-1.2H233l0.1-19.4V313v-1.4l1-0.2l6.1,3.1l-0.4,1.7l2.8,2.9l-0.4,1.9l2.6,1l3-1.7    l-3-2.6l0.1-2.4l-3-5.3l2.5-0.5L243.8,308L243.8,308z M254.1,304.8l10,1.4l-1.4,2.9l-3.6,1.7l0.5,1l-10.1-4.8L254.1,304.8    L254.1,304.8z" />
		<path d="M472.6,408.3l1.7,1.2l-3.4,1.9L472.6,408.3 M490.6,399.6l2.1,0.7l-1,2.4l-3.6-2.4L490.6,399.6     M407.3,394.3l1.2,2.6l-2.3,3.4l-3-1.4l0.4-3.1L407.3,394.3 M455.3,390.3l3.6,1l1.9,1.4l-3,0.2l-1-1.4l0.9-0.2L455.3,390.3     M415.1,385.7l3,0.5l0.9,1.7l-2.6,0.7L413,386L415.1,385.7 M420.1,384l4.2,1.9l-2.8,0.2l-2.3-1.7L420.1,384 M496.4,372.8l0.4,0.5    l-0.4,0.2V372.8 M377.5,358.4l1.4,1l1,0.2l1,1l1.4,2.9l-6.3-5h1.5 M437.4,348.8l5.4,2.6l-6,0.5l-2.5-1.9L437.4,348.8 M366.4,347.6    l1.6,2.9l-1.2,1.7l-2.5-2.6L366.4,347.6 M428.3,347.3l4.7,1.4l-0.9,5.8l-8.6,1.7l-3.1-1.9l-0.4-2.2l1.9-2.9L428.3,347.3     M431.8,344.4l2.8,1.7l-0.4,1.2l-3.4-1.4L431.8,344.4 M353.3,340.6l5.1,2.9l1.4,3.6l-0.7,1.4l-1.6-1.4l-4.7,0.7v-7.7L353.3,340.6     M413.3,339.2l1.4,0.7l-3.4,2.9h-3.5L413.3,339.2 M421.2,338.7l2.8,0.5l-1.6,2.2l-2.3-0.5l-0.4-1.9L421.2,338.7 M406.5,335.8    l1.9,0.7l-4.2,0.5l0.1,1.2l-4.5-1.4L406.5,335.8 M378.3,335.3l13.5,1.9l-6.1,1l6.6,1.7h-4.9l1.7,0.7h7.9l-4.2,2.4l4,0.2l-0.1,2.2    l-3.4,1.4l-2.1-1.2l2.1-1.9l-2.1-1l0.7,1.4l-3.5,1l1.6,1.7l3,0.7l0.1,0.7l-0.7,2.4l5.2,3.6l-1.2,3.1l-4,1l-0.1,1.9h-1.2l-7,2.9    l-2.5-2.2l-1-1.7l-0.9-1.2l-3.5-2.4l1.6,2.2l0.4,0.2l-25.2-0.2l-0.1-10.1l4.2-0.2l-0.7,2.6l6.1,5.5l-2.5,0.5l-0.4,1.7l1.2-1.4    l4.4,0.2l-1.4-1.4h3.4v-2.9l3.6-2.6l1.2-5.3l5.4-0.2l-2.8-1l4-1.2l-5.1-1.4l-0.7-4.3l1.9-0.2l-2.5-0.5L378.3,335.3 M302,310.1    l3.6,2.2l-6.3-1.2L302,310.1 M401.6,304.6l18.9,1.9l6.6,5l-20.1,1l-2.5-0.7l-0.9-3.1l-4.2-0.7l0.9-1.2l-0.7-1.9L401.6,304.6     M439,378.5l-1,0.2l1-1.4l0.1,0.2h0.1l-0.4-0.2l-0.5-1.7l-0.9,1.4l-2.3-1l1-1.2l-1-0.5l-2.1,1l3.1,1.7v1.4l-8.9-2.4l2.3,1.9    l-6.3,1.9l-7.5-1.4l-1.6-2.4l1-2.4l4.5-1.4l-1.2-1.2l0.9-1.2l11.4,3.8l-3.1-2.6l14.4-1l-5.8-5.5l13.1-8.9l-4.5-5l-0.4-2.6    l-5.4-1.2l1.7-2.2l-3.1-0.5l1.7,1.4l-1.9,0.2l-4.2-2.4l-0.5-0.5v-0.2l8-3.4l-6.5,1l-1.9,2.6l-2.1-1l-6.9,2.4l0.4-2.6l6-0.2    l-0.1-1.2l-1.7-1l-0.1-0.2h-0.1l0.1-0.2h0.1h0.7h0.5l0.9-0.5l2.1-0.5l3.1-0.7l1.4-0.7l5.4,0.5l-5.6-0.7l-5.8,1.7l1.7-1.4l-1.7-0.2    l-0.4,1.4l-1.4,0.5l-1.2,0.7l-0.1,0.2h0.1l-2.6-0.2l-1.9-1.2l-2.6-0.7l2.8-1.4h-3.5l6.1-3.8l-7.7,4.6l-1-4.1l3.6-1.4l-6,1.9    l-5.4-2.4l2.3-0.2l-1.2-1.2l-2.6,1.7l-2.1,0.7l0.9,1.4l-3.5-0.7l2.3,1.4l1.6-0.7l-0.1-1.4l3.5,0.5l1.6,2.2l-0.7,1.2l-17-1.9    l5.8,2.9l-1,0.5l-7.5-3.4l0.9-0.7l-6.9-1.2l8.9,3.6l-2.3,1l-5.4-1.7H371l-4.2-1.7l-0.5-0.7l-1.9-1.2l-1.4,0.7l1.4,0.7l-5.2,0.5    l-5.4-2.4l-3.9-4.3l14.5,0.7l-4.7-2.2l-11.9-0.7l-0.9-1.9l1.6-1.2l-1.9-1.4l3.1-1.9l-2.1-1.9l2.6-1.9l0.4-1.2l1.4-2.9l6.5-3.6    l8.4-1.7l10,1l-6.3,2.9l-4.7,5l3,2.4l-1.2,1.7l0.5,1.9l8.7,5.5l-11.4,2.2l10.6-1.7l0.5,1h-1.7l2.3,1.2v-3.4l1.4-1l0.7-1.4    l-5.2-0.2l-4.2-2.6l4.7-1.9l6.3,2.2l-4.7-2.4l3.1-0.7l-6.3-0.5l-1-3.6l9.6,1.2l-8.7-2.2l11,0.5l-8.9-2.2l2.3-1.2h0.7l2.8-0.7    l0.9-0.2l6.6-1.7h7.5l1.9,1.7l0.1,2.2l3.4,0.7l-0.1,1.7l2.3,1.7l-6.6,3.8l5.1-2.2l-2.8,2.4l2.6,1.2l-8.4-1.2l7,1.4l-1,1.2l3.6-1.4    l-0.9-1l4-2.6l2.5,1l2.5,1l-1.7,2.4l4.2,0.7l-2.5-1.2l0.4-1.2l6.5,3.4l-6.6-3.8l1.7-1l0.9,0.2l8.2,1.4l-8.9-2.4l5.6-2.4l13.8,2.2    l1.4,1.9l-8.4,3.1l6.9-1.9l0.7-0.2l5.6,1.2l-7.1,2.2l2.6,0.2l-2.8,1.2l4.4-1.2l3-0.7h0.7l2.3-0.2l-4,2.9l0.4,1.7l3.6-2.9l-0.1,1.7    h1.2l2.1,0.5l-1.9,2.6l4.7-5.5l5.8,1.2l2.3,1.9l-9.5,3.6l3.5-0.2l-2.1,1.7l11.2-3.4L458,329l-2.5,1.2L453,330l-0.9,1.4l0.1,1.2    l1.4-2.4l1.9,0.5l-2.8,4.3l3.6-5l6.3-1.9l-4.2,3.1l6.9-2.4l6.3,1.7l-0.5,1.4l-7.9,1.7l-2.1,1.2l2.1,0.2v-0.5l1-0.7l5.8-0.2    l-7.9,4.3l10.1-3.8l-0.7-0.5l1-1.2l5.4,3.1h-0.5l-1.7,0.7l1.7-0.7h0.5l0.7,1.4l-17.3,1.7l7.9-0.5l11.9,2.6l-13.5-0.7l-1.4,0.7    l6.9,0.2l-2.5,0.2l-3.4,0.7l0.4,1l4.7-1.4l2.8,1.2l-4.9,0.2l4.5,1.4h-9.3l7.7,1l-4.9,0.5l5.6,0.5h1.4l1,0.2l-0.7,1.2l5.4-0.5    l-6.9,1.2l4.9-0.5l-3.4,1.4l4.7-0.7l2.6,1l0.7,1l-0.9,0.2l-0.4,1h-2.3l2.5,0.7l0.7-1.7l1.9-0.5l2.6,0.5l3.1,0.5l-1.7,2.2l4-1.2    l0.9,0.5l-1.6,0.7l3.4,0.7l-2.5,0.5l3.1,1.2l-4.9-0.2l3.1,0.5l-3.1,1l4.9-0.7l-4.4,2.2l7.1-1.7l-1.9,2.4l4-3.4l0.7,1l-1.9,1    l-0.7,1.4l0.5,0.2l2.8-0.7l0.5,0.2l2.3,1.9l-0.4-1.9l2.3-1l-0.7,1.2l0.9,0.5l4.2,1.9h-5.2l4,1.9l-2.5,0.7l-4-1.4l-0.5,1.9l3.4,0.5    l1,1.2l-6.5-1l4.4,2.6l-3.1-1l-0.4,1.2l-0.4,1.4l-1.4-0.9l-0.7-0.2h-2.1l-0.1,1.4l1,1l1.2,2.4l-1,1.4L497,374l-0.1-0.5l0.5-1.7    l-1.2,1l-2.1-0.5l-1,0.7l-2.1-1.9l3-1.2l-4.4,0.5l2.6-1.9l-3.6,0.7l3.1-1.2l-4-0.2l4.7-1.7l-0.5-1.7l2.5-1.4l-8.7,3.4l2.3-3.6    l-3,2.2l-3.4-1l-0.7-1l-0.4-1.9l-4.2,0.2l-2.6-0.5l4.7,2.6l-5.1-1.7l1,2.4l3.9,1.4l-4.9,0.2v1.7v2.4l3.9-1.4l-1,1l2.5,1.2    l-2.8,0.2l3.6,1l1,0.5l0.7,1.2l2.8,1.2l0.7,0.2l0.5-0.5l2.3,1.4l-1,1.9l3.5-0.2l-0.5,1.7h-2.8l6.1,2.4l-2.1,1.4l1.7,1l1.2,1.9    l-0.4,1.4l-1.4-0.5l-0.5-1.9l-1.6-1.7l-1-0.2l1.4,5l2.8,1.9l-3.9-0.7l1.7,2.6l-1.4,1l-0.5-3.1l-1.4,1.2l-4.2-3.4l1.2,2.2l-2.8-0.5    l-0.7-0.2l-5.2-5l-1.9-0.7l1.2,3.1l-6-3.1l-2.6,1.2l14.9,7.9l1.6,1.9l-1,0.2l3.5,1l-2.1,1.2l1.7,1.4l-15.2-2.9l-1.4-2.6l-0.7,1.7    l-3.5-2.2l1-1h-3.1l-1.2,0.2l-5.6-1.9l-1.6-0.5l-2.1-1.4l-2.1-1.7l5.4-1.2l-1.7-1l-2.5-1.2l0.1,1.7h-2.1l-2.3-1.4l-1.7-1.7l0.5-1    l-0.9-0.5l-0.9-0.7l-1.2-1.4v-0.5l-3-0.5l0.7,1.2L439,378.5 M290.3,303.2l4,2.2l8-1.9l4.9,1.4l-4.5,1.7l3.1,1.2l-7.4,3.1    l-11.5-2.2l4.2,0.2l-10.9-2.2l4-1l1.7,1l1-1.2l-4-0.7h6.3l1.2-1.2h-2.8L290.3,303.2 M302.9,301.7l-3.9,2.2l-6.1-0.5L302.9,301.7     M327,301.2l19.1,2.4l-8.7,5.3h1.9l-4.4,3.8l-12.6-0.2h3.1l1.7,2.4l-2.5,1.7l-7.1-1.7l-3.1-2.6l0.1-2.6h0.9l-1.2-4.6l6.3,0.5    l-4.2-2.4L327,301.2 M265.5,291.4l3.5,2.2l-7.5,0.2L265.5,291.4 M318.9,289.7l8,2.9l-0.7,1.9l1.2,0.5l-0.1,2.2l-6.9,0.7L309,295    l4.9-3.1l-2.1-0.2L318.9,289.7 M273.2,284.4l1.9,1.2h-11.2L273.2,284.4 M266,281.6l6.5,1.9l-7.7,1l1.6-0.2l-3.6-1.7L266,281.6     M297.1,281.6h1.4l0.4,0.2l-0.1,0.2l0.4,0.5l3.9,0.7l1.2,2.4l-0.4,2.4l-2.6,1l3.5,0.5l0.7,2.2l-2.6-0.5l-2.6,1.2l3.5,1.2l-3.4-0.2    l0.9,1.4l-11.9,0.2l-2.8-1.7l3.6-0.2l-5.1-1l11.2-2.9l-23.1,0.7l4.7-0.7l-1.9-0.5l1.2-1h1.9l1.2-0.2l1.9-0.7l-3.6-0.7l3.4-1.2    l-4.7,0.2l1.6-1.7l11.4,4.6l2.8-0.7l-4.7-1.4l4.7-0.2l-5.8-0.5l3.5-0.5L284,283l7.7-1l3.5,1.9l1.4-0.2l1.4-1.4l0.7-0.5h-2.5    L297.1,281.6 M239.8,280.4l1.7,1l-1.9,0.7l0.9,1.7l3,1.2l-2.6,1.7l5.1,0.5l-2.3,1.7l5.6-1l1,1.9l1.6-1.2l-1.7-1.4l3.4-0.5l4.4,1    l1,2.2l-3.6,4.8l-6.9,1l-3.4-1.4l-3.4,1.4l-2.6-1.2l-6,1.7v-5.5l6.9,0.2l-6.9-2.9l3.5-1.2l-3.5-1.7l0.9-2.4h-0.9L239.8,280.4     M347.1,280.4l1.7,2.6l-5.2-1.9L347.1,280.4 M314.3,278.7l14.5,2.4l-2.1,2.9l2.5-1.9l9.6-0.5l5.6,1.7l-6.6-0.2l13.5,1.7l-6.9,1    l2.1,0.2l-8.7-1l8.2,1.7l-5.4,0.2l-0.4,1.7l7.1-1.7l1.6,1l-0.7,0.7l3.6,0.2l-3.5,1.7l4.5,1h1.2l-0.9-1.4l0.9-0.5l3,1.7l5.4-1.2    l6,2.2l-0.9,0.5l5.1-1l-3.5-1l12.2-2.4l13.8,0.2l11.7,2.6l0.4,1.9l-4.9,1.7l5.8,1l-5.8-0.5l1.2,1l-0.4,1.9l-9.1,1l-5.8-0.5    l-1.9-2.4l-4.7-0.7l3.6,1.2l-0.7,1l-0.9,0.7l-7.5,0.5H374h-1.9l-6.9-1l1,1.2h-1.4L355,299l1.4-2.2l-1.6-1.2l-5.8,3.1l-8.2-1.4    l-0.5,0.7l-2.8-0.2l-3.9-3.4l2.6-0.5l-4-0.7l3.1-2.9l-0.9-2.2l-5.6-3.8l-13.3,1l3.5-0.7l-12.6-3.1l3.9-0.2l-2.8-1.9L314.3,278.7     M342.5,274.1l6.6,2.4l-4,1l-5.1-1.7l0.1-1.4L342.5,274.1 M256,273.2l8.6,4.3h-6.1l-4-4.1L256,273.2 M315.9,272.9l13.5,1l-4.7,1.7    l-14-1.2L315.9,272.9 M279.7,272l4.7,1.4l-9.3-0.5L279.7,272 M300.8,264.8l18.5,3.6l-3.5,1l3.1,1l-1.2,1.4l-11.7,1l0.7-0.7l-4.4-1    l5.4-0.5l-6.5-1l1-0.2l-3.6-1.9l2.1-0.5l-1.9-1.4L300.8,264.8 M266.9,260.5l6.3,1l1.7,2.9l4.2-1.7l4.9,1.2l-1.4,1.2l4.9-0.5    l5.1,2.2l-2.3,1.2l0.5,1l5.1,1.9l-1.6,1.7l-4.2,0.5l-3.9-0.7l-2.5-2.6l-10.1-1.4l-9.6,1l-3.4-1.9l8.6,0.2l0.9-1l-3.6-0.2l4.2-0.7    l-5.2-0.5l2.1-1l-1.6-0.5l-5.1,1.4l1.7-1.9l-5.4-1l1-1.4L266.9,260.5 M291.9,254.2l4.5,0.7l1,2.2l-8.9-1L291.9,254.2 M327,244.6    l9.6,1.7l7.1,4.1l-1,0.7l9.6,0.5l-0.7,1.7l2.5,1.2l3.9,0.2l-3.4-1.4l0.5-1h5.6l0.1,1.9H357l3.1,1L360,255h2.6l1.9,1.2l-2.8,3.1    l6.3-1l1.7,1.7l1.7-1.4l4.7,2.6l-12.1,1.7l0.1,1.4l-3.9,1.9l-2.1-1.4l1.6-2.2l-2.5,0.7l0.4,2.6l1.2,1l-5.2-0.5l1.4,1.7l-1.6,1.9    l-6.6-3.6l-0.7,0.5l3.6,3.1l-4.5-1.4h-2.8l2.5,1.4l-9.6-0.5l-5.6-2.2l7.9-0.5l-9.6-0.2l-3-1.4h4.5l-7.4-1.7l22.7-2.2l-11,0.2    l-2.5-0.2l9.1-1.2l-11.5-0.7l0.9,0.7l-12.4,1l-3.5-2.2l8.4-1.7l-9.5,1l-4.2-1.9l3-0.2l-3-0.7l-0.4-0.7l13.6,1l-2.5-1l4.2-0.7    l-14.7-1.2l8-0.2l-4.4-1.7l12.8,0.5l-4.9-1.2l4.5-0.2l-9.6-0.7l3.5-2.2l10.9-0.7l-7.9-0.7L327,244.6 M461.8,230.9l21.4,1.4    l-13.5,2.4l22-2.2l7.4,0.5l0.7,0.5l-3.1,0.5l6,1.2l-2.6,1l6.6-0.7l-0.9,0.5l7.4,1.2l-18.7,4.8l-22.2,1.2l-6.6-1.2l6,1.4H469    l12.4,0.2l-20.5,2.6l33.1-2.4l-29,8.6l-7.7-1.4l5.2,2.4l-1.2,0.5l-13-0.2l11,1l-5.4,1.4l3.1,0.2l-3.5,1.2l-15.9-1.2l-7.1,0.7    l12.4,0.2l1.2,1.7l-11.4,1.4l-11.5-1.4l7.1,1.7l-12.6-0.2l20.3,1.2l-1.6,0.5l2.3,0.7l-19.4-1.2l-2.8,0.5l12.8,0.5l-16.3,0.2    l6.9,0.5l-2.8,1.9l3.4-1.7h10.6l-4,1h8.7l1.9,2.2l-11.9,0.5l9.5,1.4l-10.9,1l7.5,0.7l-1.7,1.2H415l-1.2,0.5l4,2.4l-6,2.2h-11.6    l-6.9-2.9l1.6,1.2l-0.7,0.7l3.6,1l-6.1,0.2l2.3,1.2l14.5-0.7l1.7,1l-2.5,1.4l3.9,1l3.6-1.7l2.1,1.7l-3.6,2.9l-2.5-1l-2.8,2.2    l-10.1,1.2l1.7-2.2l-7.7-0.7l1.7-1.4l-5.4-1l3.5,2.9h-5.2l-2.1-2.4l-0.9,0.5l2.3,2.2l-10.9-1.2l3.9,1.9l-3,0.2l-8.6-0.7l1-1    l-2.3-1l1.7,1l-2.8,1.2l-4.2-2.2l0.7,2.2l-5.8-0.2l-0.5-3.4l-1.2,0.7l1.2,1.2l-0.7,1.2l-0.4-1.4l-1.2,1.4l-4.5-1.2l1.7-1.2l-0.9-1    l6.5-1.9h-1l11.4-0.7l-3.6-0.2l2.3-1.2h-5.1l0.5-1l-3.5-1.4l0.1-1.4h10.3l2.6,1.2l0.9,2.2l7.7,1l-0.9-0.7l6.6,0.2l-2.1-0.7l8.7-5    l-9.3,4.8l-5.1-0.2l2.1-1.9l-3,1.2l-2.1-1l2.3-1h-2.8l6.3-0.5l-7.9-0.2l9.6-1.9l-5.4-0.2l2.1-1l-1.6-0.2l1.4-1.9l-4.9,4.1h-4.7    l2.6-2.4l-5.1,2.2l-4.7-0.2l2.8-0.5h-2.6v-1.4l3.9-1.2l-1.6-0.2l1.6-1.2l10.1-1.4l15.6,2.6l-1.2-1l2.3-0.2l-6.1-0.7l8.9-0.2    l1.6-1.7l-6.5,1.4l-12.4-1.2l7.9-0.2l-5.6-1l-4.7-3.6l-7.5-1l0.1-1.7l6.9,0.5l-7.1-0.7v-2.4l15.6,0.5l11.7,5.3l6.5,0.2l5.2-1.2    h-10.4l-0.9-1.7l1.9-0.2l-10.6-2.9l29.4-1.9l-11-0.5l28-3.1l-22,1l13-4.3h-0.9l-10,2.4l-4.9-0.5l2.5,1l-11,3.4l-12.4,1l7.9-2.4    l-10.5,0.7l1.9-0.7l-3.1,0.7l-0.1,1.4l-13,0.2l-3.9-0.5l6-2.9l19.6-1.7l-19.4,1l-10.5,3.4l-11-2.4l27.5-2.9l-29.2,2.2l-3.4-1.2    l8.2-0.5l-6.1-0.7l6.6-1.4h8.9l-6-0.7l-12.2,1.9l-2.6-0.7l7.7-1.4h-13.8l7.7-1.9l9.5,0.5l-0.7-1.4l5.8-1l20.3,1.7l-13.5-2.4    l8.9-0.7l-3.4-1l4-0.5l13.1,2.9l-1.2,0.5l9.3,0.5l-8.7-1.9l2.3-0.5l18.4,3.1l-18.9-3.8l7.4-1l-5.4-0.7l1.2-0.5l8.4,1.4l1-1l-6-1.7    l8.9,1.2l-2.1-1.9l3.1-0.5l11.5,0.2l11.4,2.6l-1.6,0.5l3.9-0.5l-11.9-3.6l17.1,0.2l11,2.6l0.9-0.2l-6.9-1.7l11.9-1.2l-1.2,0.5    l5.8,1.2l-3.5-1.2L461.8,230.9" />
		<path d="M391.6,389.5l2.1,0.5l-0.4,1.7l-6.5,4.1l-3.9,0.5l-1.2-2.2l3.1-3.8L391.6,389.5L391.6,389.5z M372.9,366.3    l2.1,1.4l0.7,1.2l-1.6,0.5l2.3,2.6l2.5-2.2l15.2,7.4l1.4,3.1l-2.5,1.2l6.1,0.2v-1l4.5,2.6l-4.9,2.6l-8.6-1.7l0.7-1.9l-4.5-0.7    l2.1-2.4l-2.3,1.4l-1.7-1l-0.7,3.6l-4.2,1l-1.4,2.9l-3.5,1.4l-2.6-1.7l0.4-2.6l-0.7-0.7l1.9-1.9h-1l-1.4,2.4l-8,0.7l1.6-2.4    l4.4-1.4l-1.2-4.1l1.4-2.6v-3.8l1-2.6L372.9,366.3L372.9,366.3z M375.5,365.6l2.8,3.4l-3.1-1.2L375.5,365.6L375.5,365.6z     M379.2,364.6l7,3.6l-3.6,0.2l0.9-0.7h-2.6L379.2,364.6L379.2,364.6z M344.5,357.9l31.3,0.2l-1,0.5l0.5,1h-0.9l1.6,0.2l-0.5-0.7    l1-0.2l6.9,5.5l-4.5-1.7l-0.9,0.5l1.6,1.4l-4.7-0.7l-1.4-2.9l-7.9,0.5l0.9,1.7l4.4,1.4l-8.6,6.5h-3.9l-4.7-2.4l4.5,0.5l-10.1-3.4    l-1,0.5l1.7,0.7l-4.4-0.2l8.2,4.3l12.1,1.4l-2.1,3.1l-1.2,1l-3.5,3.8l-3.6,1.2l-2.1,0.2l-3.4-0.5l-0.4-1.9l-1.4,1l1,1.7l-1.7,2.4    l-4.5,0.5l-4.4-1.2l0.9-1.2l-3.5,1l-9.6-3.6l0.5,1.9l0.5,0.7l8.9,1.4l-5.4,1.2l3,2.2l1.2,0.2l-3.5-2.2l3-0.2l3.5-1.4l6.3,2.9    l0.4,2.2l-4.2,2.2l-6.2-0.4l2.6,2.4l-6.5-1.7l5.8,2.6l-3.9-0.7v1.4l-3.5-0.5l-1.4-1.9v-0.2l-0.1-0.2v-1.4l0.4-0.2H326l-0.5,0.2    l0.4,1l1.2,2.6h0.4l4,1.4l-1.4,1l-2.1,1.7l0.5,1l-0.1,0.2l-5.1,3.4l1,1.7l-4.2,5l-0.7,3.6h-11.2H278v-15.8V393v-13l-3-0.2    l-14.4-1.9v-1.7l0.1-18.2L344.5,357.9L344.5,357.9z" />
</g>
<g id="Saskatchewan">
			<polygon points="279.5,462.5 280,468 280,469.7 280.2,473.5 270.8,473.5 270.8,475 263.4,475 263,466.3 260.4,466.3 260.3,461.8   " />
			<polygon points="255.2,460.6 255.2,467.1 249.6,472.8 247.7,473.3 241.2,469 242.6,468.7 242.8,463.2 244.2,463.2 244.8,460.6 247.4,460.6     247.4,459.1 255.2,457.7   " />
			<polygon points="257.3,483.1 257.4,486.2 259.2,487.4 259.4,491.5 245.7,491.5 244.7,484.6 245.5,481.9 250.3,481.9   " />
			<polygon points="253.3,472.6 252.7,475 260.9,475 262,482.9 257.3,483.1 250.3,481.9 248.9,480.5 250.8,476.7 250.3,475 247.8,475 247.7,473.3     249.6,472.8   " />
			<polygon points="241.2,469 247.7,473.3 247.8,475 250.3,475 250.8,476.7 248.9,480.5 250.3,481.9 245.5,481.9 240.7,481.2 241.2,472.8     242.8,472.8 239.3,470.9 239.3,469.2   " />
			<polygon points="239.3,469.2 239.3,470.9 242.8,472.8 241.2,472.8 240.7,481.2 232.3,481.2 232.1,475.7 232.1,469.2 234.5,467.8   " />
			<polygon points="245.7,491.5 245.9,497.8 248.2,497.8 248.2,499.7 232.1,499.7 232.1,490.8 236.3,491.5 236.1,489.4 238.5,489.4 238.7,491.5     241,492.2   " />
			<polygon points="270.9,482.9 271.1,491.5 259.4,491.5 259.2,487.4 257.4,486.2 257.3,483.1 262,482.9   " />
			<polygon points="281.5,495.6 281.8,499.7 271.3,499.7 271.1,491.5 281.4,491.3   " />
			<polygon points="260.3,461.8 260.4,466.3 263,466.3 263.4,475 260.9,475 252.7,475 253.3,472.6 249.6,472.8 255.2,467.1 255.2,460.6 260.3,460.6       " />
			<polygon points="278,413.1 278.4,447.6 279.5,462.5 260.3,461.8 260.3,460.6 255.2,460.6 255.2,457.7 247.4,459.1 243.9,459.1 243.8,455.8     241.2,455.1 239.1,456.5 232.1,455.3 232.3,449.8 232.3,413.1   " />
			<polygon points="247.4,459.1 247.4,460.6 244.8,460.6 244.2,463.2 242.8,463.2 242.6,468.7 241.2,469 239.3,469.2 234.5,467.8 232.1,469.2     232.1,461.3 232.1,455.3 239.1,456.5 241.2,455.1 243.8,455.8 243.9,459.1   " />
			<polygon points="245.5,481.9 244.7,484.6 245.7,491.5 241,492.2 238.7,491.5 238.5,489.4 236.1,489.4 236.3,491.5 232.1,490.8 232.3,485.3     232.3,481.2 240.7,481.2   " />
			<polygon points="280.2,473.5 280.5,479.5 280.7,482.9 270.9,482.9 270.8,475 270.8,473.5   " />
			<polygon points="270.8,475 270.9,482.9 262,482.9 260.9,475 263.4,475   " />
			<polygon points="259.4,491.5 259.7,499.7 248.2,499.7 248.2,497.8 245.9,497.8 245.7,491.5   " />
			<polygon points="280.7,482.9 281.3,487.2 281.4,491.3 271.1,491.5 270.9,482.9   " />
			<polygon points="271.1,491.5 271.3,499.7 259.7,499.7 259.4,491.5   " />
</g>
<g id="Alberta">
			<polygon points="232.3,413.1 232.3,449.8 224.7,449.8 224,444.7 217,444.7 216.3,434.4 209.2,433.7 209.2,417.1 200.2,417.1 200.2,413.1   " />
			<polygon points="215.8,460.6 215.8,465.4 213.9,466.6 214.4,470.2 205.8,469.5 200.1,469.5 199.9,465.4 202.8,465.4 204.1,462.5 208.4,463.5     209,460.8   " />
			<polygon points="224.2,486.2 224.4,490.8 222.7,490.8 222.8,495.6 221.2,495.6 224.6,499.7 218.4,499.7 213.3,491.5 219.8,489.4 217,485.3     219.3,482.2   " />
			<polygon points="232.1,490.8 232.1,499.7 224.6,499.7 221.2,495.6 222.8,495.6 222.7,490.8 224.4,490.8 224.2,486.2 230.5,487 232.3,485.3   " />
			<polygon points="232.1,461.3 232.1,469.2 224,467.1 224.2,468.7 218.8,468 218.6,470.7 215.3,472.1 214.4,470.2 213.9,466.6 215.8,465.4     215.8,460.6 216,459.9 224.2,462.3   " />
			<polygon points="193.1,470.4 191.5,474 194.8,477.6 204.4,478.3 205.2,482.4 206.2,488.6 207.9,489.4 209.2,493 207.2,492.7 207.6,495.4     205.8,495.4 205,494.9 204.8,489.1 196.1,481.4 190.1,474.5 187.3,474.3 188,473.3 186.2,472.1 185.1,473.1 184,469.5     178.2,465.4 177.3,464.9 184.2,464.7   " />
			<polygon points="216,459.9 215.8,460.6 209,460.8 208.4,463.5 204.1,462.5 193.8,459.4 198,456.5 203.1,456.5 203.1,453.6 207.9,453.6     207.4,455.8 211.1,455.8 211.1,452.9 216.5,452.7 215.7,451.9 216.3,448.8 218.9,448.8 218.9,451.5   " />
			<polygon points="193.8,459.4 204.1,462.5 202.8,465.4 199.9,465.4 200.1,469.5 193.1,470.4 184.2,464.7 177.3,464.9 178.2,465.4 176.3,465.1     174.7,461.8 174.7,460.8 185.6,461.8   " />
			<polygon points="205.8,469.5 206.3,476.7 203.6,476.9 204.4,478.3 194.8,477.6 191.5,474 193.1,470.4 200.1,469.5   " />
			<polygon points="211.8,488.6 213.3,491.5 218.4,499.7 208.8,499.7 205.8,495.4 207.6,495.4 207.2,492.7 209.2,493 207.9,489.4   " />
			<polygon points="192.3,449.5 193.4,453.6 197.8,453.6 198,456.5 193.8,459.4 185.6,461.8 174.7,460.8 174.7,454.6 184.7,451.5 185.1,448.1     188.3,447.1 188.8,449.5   " />
			<polygon points="232.1,475.7 232.3,481.2 232.3,485.3 230.5,487 224.2,486.2 219.3,482.2 217.7,480.7 220,479.3 219.5,477.1 225.1,476.2     225.6,474.3   " />
			<polygon points="232.1,469.2 232.1,475.7 225.6,474.3 225.1,476.2 219.5,477.1 215.4,476.4 214.4,473.5 215.3,472.1 218.6,470.7 218.8,468     224.2,468.7 224,467.1   " />
			<polygon points="232.3,449.8 232.1,455.3 232.1,461.3 224.2,462.3 216,459.9 218.9,451.5 218.9,448.8 216.3,448.8 217,444.7 224,444.7     224.7,449.8   " />
			<polygon points="200.2,413.1 200.2,417.1 209.2,417.1 209.2,433.7 216.3,434.4 217,444.7 216.3,448.8 215.7,451.9 216.5,452.7 211.1,452.9     211.1,455.8 207.4,455.8 207.9,453.6 203.1,453.6 203.1,456.5 198,456.5 197.8,453.6 193.4,453.6 192.3,449.5 193.2,448.8     192.2,445 188.8,444.7 190.4,442.3 174.7,443.5 174.7,428.9 174.7,413.1 192.2,413.1   " />
			<polygon points="210.9,476.9 211.1,480.5 212.8,480.5 211.3,482.9 211.8,488.6 207.9,489.4 206.2,488.6 205.2,482.4 204.4,478.3 203.6,476.9     206.3,476.7   " />
			<polygon points="214.4,470.2 215.3,472.1 214.4,473.5 215.4,476.4 210.9,476.9 206.3,476.7 205.8,469.5   " />
			<polygon points="192.3,449.5 188.8,449.5 188.3,447.1 185.1,448.1 184.7,451.5 174.7,454.6 174.7,443.5 190.4,442.3 188.8,444.7 192.2,445     193.2,448.8   " />
			<polygon points="215.4,476.4 219.5,477.1 220,479.3 217.7,480.7 219.3,482.2 217,485.3 219.8,489.4 213.3,491.5 211.8,488.6 211.3,482.9     212.8,480.5 211.1,480.5 210.9,476.9   " />
</g>
<g id="Northwest_Territories">
		<polygon points="171.9,352.1 174.6,353.1 182.7,356.4 191.7,358.4 193.9,359.6 194.1,359.6 187.7,362.9     185.7,370.8 178.1,370.8 177.3,373.2 179.6,373.2 174.7,377.1 174.7,381.9 172.4,380.9 146.9,383.1 140.7,385.9 138.5,386.9     137.6,389.5 137,391.2 125.9,396.3 126.8,397.2 122.7,396.5 121.7,396.3 122.2,393.6 118.7,390.7 119.6,388.8 116.8,387.6     116.5,387.6 117.4,386.9 118.6,385.9 115.4,384 116.5,383.1 116.6,382.8 116.1,382.6 112.8,381.6 111.2,379.2 112.6,379.2     111,367 105.5,365.3 105.5,361 115.1,359.6 114.7,353.6 171.2,351.9 171.7,351.9   " />
		<polygon points="278,397.2 278,413.1 232.3,413.1 200.2,413.1 192.2,413.1 195.5,410.2 195.7,408 199.2,406.1     200.1,407.3 204.4,399.9 214.6,397.5 218.3,396.7 228.6,390 278,392.9   " />
		<path d="M194.1,359.6l0.5,0.2l15.9,7.2l6.9,3.1h11.7l9.8,5.8l10.6,1l11.2,1l14.4,1.9l3,0.2v13l-49.5-2.9l-10.3,6.7    l-3.6,0.7l-10.1,2.4l-29.6-9.1l-0.1-8.6V382v-4.8l4.9-3.8h-2.3l0.7-2.4h7.7l1.9-7.9L194.1,359.6L194.1,359.6z M181.7,374.7l3,2.2    l1.9,1.2l0.7,5.5l-3.6,0.7l-1.4,0.2l-0.4,2.2v1l2.6,0.2l8.2,1l4,2.9l4-2.2l3.6-2.2l2.5-6.5l10-3.8l0.9-0.5l-1.9-0.2l-2.3-0.5    l-10.6,4.1l-1.2,0.5l-2.3-1.4l0.9-2.9l0.1-0.2l-10.9,1.4l-1.7-1.2l-2.6-3.6L181.7,374.7L181.7,374.7z" />
		<polygon points="172.4,380.9 174.7,381.9 174.7,382.1 174.9,390.7 204.4,399.9 200.1,407.3 199.2,406.1 195.7,408     195.5,410.2 192.2,413.1 174.7,413.1 153,413.1 148.5,408 148.6,405.6 135.7,407.1 134,401.5 130.1,400.6 126.8,397.2     125.9,396.3 137,391.2 137.6,389.5 138.5,386.9 140.7,385.9 146.9,383.1   " />
		<path d="M129.2,330l4.4,2.4l2.1,2.2l0.4,1.7l2.5,1.7l4.9,1.7l1.9-1v-0.2l-1.6-1.7l3.5-0.2l-3-0.7l3.9-1.4h-3.4    l4.5-0.2l-1.9-0.7v-0.5l1.2-0.2l0.9,0.5l0.4,0.7l-1,2.6l2.8,0.2l-3,2.2l0.9,0.5l5.8-0.5l2.5-3.4l8.9,0.5l3.9,1.7l0.4,3.6l0.4,10.6    l-56.5,1.7l0.4,6l-9.6,1.4v4.3l5.6,1.7l1.6,12.2h-1.4l-4.5-0.7l1-1l-5.4-2.6l1.6-1.7L102,372l2.5-2.2l0.9-0.7l-0.7-0.5l-1.7-1.4    l1.4-0.7l-6.1-0.2h-1.4l0.5-2.2l-0.9-0.2l-0.7-0.2l0.9-1.2l0.5-0.7l-3-3.1l1.6-0.5H82l-0.1-1.4v-2.4l-0.4-0.5l-1.2-0.7v-9.6h1.9    l1.7-3.6l7.7-1l-0.9-0.5l0.7-1.7l4.2,1.2l0.7,1.7h3.6l0.5-2.4l8.9-2.4l0.9,1.2l1.6-2.4l5.2,0.7l2.1-1.9l1.7,1.2l-9.1,4.6l-0.5-0.7    l-5.8,1l-1.7,2.2l-0.9-0.5h-0.5L101,341l-3.6,2.9l3.4,1.2l-2.8-1.2l5.6,0.2l-0.5-0.7l-1.4,0.5l-0.5-0.7V343l-0.1-0.7l0.4-0.2    l3-1.2h1l1.7-0.2l0.5-1l2.5-1h1.6l0.7,0.7l1.7-0.7l9.6-3.6l-1.6,2.2l2.8,0.7l-1.9-1l4.9-1l-0.7-2.4l4.4-0.7l0.4,0.2l0.1,0.5    l-0.1-0.7l-0.7-0.2h-2.5l-0.9-1L129.2,330L129.2,330z M229.8,310.6l3,0.2l0.4,1.9h-2.3l0.4-0.7l-3.1-1.2L229.8,310.6L229.8,310.6z     M206.6,307.7l3,1.7l0.1,2.6l-3.5,1.9l6.3-0.7l-1-1l3.5-1.7l10.5,2.2l-5.2,3.6l2.8-0.7l-0.9,1.2l3-1.9l-0.7,1l2.1,0.5l1.7-2.4    l4.9,1l-0.1,19.4h-15.2v1.2H216v-1.2h-24.1l0.5,1l1,0.7l1.6,0.5l-3,0.2l-2.1-2.9l16.5-2.2h17.5l-13.6-3.1l-21.4,1l-4.9-3.1    l3.4-1.4l7.7-0.5l-1.9-0.2l10.1-2.2l-17.9,1.2l-0.9-0.7l3.6-1.4l-7,0.7l-1.4-1.4l6-3.8l-2.6-1.2l2.3-1.9L206.6,307.7L206.6,307.7z     M166.1,298.4l10.1,3.4l3.5-0.7l-0.1,2.2l2.3-2.2h7.9l12.1,5.8l-21.9,6.7l-1,2.2l-5.6,0.7l0.7,1l-1.9,1.7l-0.4,3.1l-7.4,0.2    l1.4,0.5l-7,2.9l-2.6-0.2l-4.2-4.3l-1.6-0.7l-2.3-0.2l-3.6-1.4h2.3l-2.3-0.2l-2.8,0.2h-1.4l6.5-4.8l-1.4-2.4l4.2-0.7l-2.8-1    l6.5-5.3l-5.8-4.6L166.1,298.4L166.1,298.4z M188.2,285.9l1.2,0.5l-5.2,4.1l-6-0.5L188.2,285.9L188.2,285.9z M204.3,283l4,0.2    l1,2.2l9.1,0.2l4,1.9l-3.1,1h3.6l2.1,2.2h8v4.3v1l-19.2,3.6l-7.1-2.4l20.5-4.3l-8.7,1l-1.4-1.2l-7.4,1.9v-1l0.7-1.2l2.8-0.7    l-4.2-0.5l-0.7,1.9l-1.2,1l-3.9,1.2l-1-1.9l-2.6,1.7l-3.4-0.7l1.4-0.5l-1-0.7l-8.4-0.2l2.3-1.7l13-1.7l-12.6,0.7l2.3-1.7l11.7-0.7    h-11.2l3-2.4l9.1,0.2l-7.4-1L204.3,283L204.3,283z M209.2,279.9l3.4,1h-8.2L209.2,279.9L209.2,279.9z M195.5,274.6l6,1.9l-6.1,1.4    l4,1.7h-3.6l2.8,1.9l-6.6,1.2l0.7,1.2l-1,0.7l-5.6-1l2.3-3.1l-1-0.2l-6.3,2.6l2.5,1.4l-3,1.9l-3.9-2.2l1,1.9l0.4,0.7l-2.6,1.2    l-3.1,0.2l0.5-1.2l-2.8-1.7l-1,0.7l0.7,1.2l-2.1,0.5l-10-1.4l22-9.8l12.6,0.2l2.3-0.7l-3.1-0.5L195.5,274.6L195.5,274.6z     M207.2,270.5l4.5,2.2l-4.2,1l-4.7-1.9L207.2,270.5L207.2,270.5z M230.3,270.3h2.8v1.4l-6.5,1l5.1,0.2l0.1,1.7l-4.7,1.2l-8.9,0.5    l-4.4-1.2l0.7-1l-1.4-1.2L230.3,270.3L230.3,270.3z M229.9,265.3l3.1,0.7v2.9l-20-0.2L229.9,265.3L229.9,265.3z" />
		<polygon points="187.8,376.1 189.6,377.3 200.4,375.9 200.2,376.1 199.3,379 201.7,380.4 202.8,380 213.6,375.9     215.8,376.4 217.7,376.6 216.8,377.1 206.9,380.9 204.4,387.4 200.8,389.5 196.7,391.7 192.7,388.8 184.5,387.9 181.8,387.6     181.8,386.7 182.2,384.5 183.6,384.3 187.3,383.5 186.6,378 184.7,376.8 181.7,374.7 185.2,372.5   " />
</g>
<g id="British_Columbia">
			<polygon points="174.6,493 178.4,494.4 179.4,497.3 178.7,499.7 169.8,499.7 170.2,497.5 168.4,497 169.3,494.4   " />
			<polygon points="205.8,495.4 208.8,499.7 197.6,499.7 196.1,495.6 193.9,496.1 193.8,492.7 195.2,490.8 193.6,488.2 194.5,486.7 193.1,486     195.8,484.3 196.1,481.4 204.8,489.1 205,494.9   " />
			<polygon points="160.2,482.4 159.7,480.7 160.9,480 171.6,480.5 171.6,478.8 173.5,477.4 171.6,472.3 174,469.2 181,471.6 181.7,474.7     180.8,480.2 176.5,484.1 177.8,485.3 176.8,488.6 176.1,490.1 174.6,493 169.3,494.4 168.1,494.9 168.4,493.4 168.6,493     167.7,492 167.2,491.5 164.9,491.3 161.7,490.8 162.1,489.8 162.5,488.4 164.6,487.4 165.5,484.1   " />
			<polygon points="148.6,498.7 153.2,499.2 154.4,503.3 150.4,502.3 149,503.3 146.9,502.3 148.6,500.4 148.5,498.7   " />
			<polygon points="149.2,444.5 152.1,448.1 155.3,451.2 154.2,452.9 151.5,452.9 153,455.1 151.8,457 154.4,457.9 154.1,460.1 155.8,464.4     148.8,463.9 146,464.7 146,468.3 136.7,468.3 134.5,467.5 134.6,466.1 133.1,466.1 128.7,461.3 131.5,457.2 130.1,456.7     130,452.4 136.6,451.5 130.5,446.9 127.6,446.7 126.8,444.5   " />
			<polygon points="160.2,482.4 157.2,482.2 153.2,484.8 145,480.7 144.5,481 144.6,478.1 142.7,476.7 142.2,475.2 144,473.1 141.1,471.1     138.3,471.9 138.3,469.5 137,469.7 136.7,468.3 146,468.3 146,464.7 148.8,463.9 155.8,464.4 155.8,465.9 157.6,466.1     168.9,464.9 174,469.2 171.6,472.3 173.5,477.4 171.6,478.8 171.6,480.5 160.9,480 159.7,480.7   " />
			<polygon points="151.5,489.1 152.3,489.1 153.6,490.1 154.2,490.6 154.2,490.8 154.2,493 155.6,493 156,495.1 154.4,496.8 152,495.6 151.5,494.6     152,492 153.2,491 153.2,490.3 151.8,490.1 151.6,492.5   " />
			<polygon points="180.1,493.2 178.4,494.4 174.6,493 176.1,490.1 181.6,491.8   " />
			<polygon points="144.2,492.5 145.3,493 147.4,496.1 146.2,496.3 143.7,494.9 143.6,494.6 142.9,493.4   " />
			<path d="M135.7,492.7l1,2.4l-1.9-1.2L135.7,492.7L135.7,492.7z M139.7,488.2l3.9,1l1.7,3.8l-1-0.5l-1.4,1l0.7,1.2l-0.4,1.2l-6.1-0.5l3-0.5    l-3.1-0.7l-1.6-2.2l-1.4-1.4l-4.7,0.2l4.7-1.7l4.2,3.4l1.9-2.2L139.7,488.2L139.7,488.2L139.7,488.2z M145,480.7l8.2,4.1l-0.1,0.5    l-0.4,1l-2.5-1l-1.9,1.4l0.1,1.9l-3,0.5l1.6-4.6l-2.1,4.1l-2.6-0.2l-3.6-0.7l1.9-0.7h1.9l2.1-2.6l-0.1-3.4L145,480.7L145,480.7z" />
			<polygon points="150.2,485.3 152.7,486.2 152.5,488.2 152.3,489.1 151.5,489.1 151.6,492.5 150.2,493.9 147.2,491.8 148.5,489.8 147.6,489.4     149.7,487.9 148.5,488.6 148.3,486.7   " />
			<polygon points="185.1,486.5 184.8,490.3 183.5,491.5 184.5,493.2 180.1,493.2 181.6,491.8 176.1,490.1 176.8,488.6 182.7,484.6 184.7,484.8   " />
			<polygon points="174.7,461.8 176.3,465.1 178.2,465.4 184,469.5 185.1,473.1 181.7,474.7 181,471.6 174,469.2 168.9,464.9 157.6,466.1     155.8,465.9 155.8,464.4 154.1,460.1 154.4,457.9 151.8,457 153,455.1 151.5,452.9 154.2,452.9 155.3,451.2 152.1,448.1     152.7,444.7 155.5,445.7 157.9,448.1 157.6,449.3 161.1,449.8 166.5,455.8 173.8,459.4 173.3,460.6   " />
			<polygon points="153,413.1 174.7,413.1 174.7,428.9 146.4,428.9 146.6,426.7 135,423.9 134.6,420 130,415.5 130.5,413.1   " />
			<polygon points="146.4,428.9 174.7,428.9 174.7,443.5 174.7,454.6 174.7,460.8 174.7,461.8 173.3,460.6 173.8,459.4 166.5,455.8 161.1,449.8     157.6,449.3 157.9,448.1 155.5,445.7 152.7,444.7 152.1,448.1 149.2,444.5 145.3,442.1 140.6,443.5 139,439.5 132.2,439.2     130.3,436.3 133.1,432 135.7,432.3 134.8,428.9   " />
			<path d="M128.5,485l11.2,3.1l0.4,2.2l-1.9,2.2l-4.2-3.4l-4.7,1.7l1.2-1.2l-1.2-1.4l2.8,0.7l-1-1.2l-2.5,0.7l-2.3-2.6L128.5,485L128.5,485z     M142,476.2l0.7,0.5l1.9,1.4l-0.1,2.9l0.1,3.4l-2.1,2.6h-1.9h-2.1l3.4-0.2l1-3.4l-0.9,2.9l-2.8,0.2l1-1l-3.1-0.2l2.1-0.7l-1.9-1    l-0.9,1.4l-3-0.5l1,0.7l-3-1.4l5.1-1.4l-6.3,0.2l9.1-2.2L142,476.2L142,476.2z" />
			<path d="M107,466.3l1,1.7l-2.5-0.2l0.1,1.4l2.1,0.5l-1.4,0.5l5.1,4.6l-1.4,0.5l-6.5-6.5l1.7-0.2l-3-1L107,466.3L107,466.3z M114.7,463.2    l4,3.4l-3.1-1.4L114.7,463.2L114.7,463.2z M116.1,461.1l4.5,3.8l-0.5,1.7L116.1,461.1L116.1,461.1z M114.9,459.6l0.5,2.2l-2.1-0.2    L114.9,459.6L114.9,459.6z M107.7,459.9l-1.7,6.2l-0.9,0.7L103,467l-0.4-0.2l-0.9-0.7l1.7-0.5l-2.8-1.2L99,461l0.5-2.2l4.5,0.7    l1,1.7l-3.4,1.7l1.2,0.7l1.9-1l0.1-1.7l-0.5-1.2h3.1v0.2H107.7z M118.6,454.6l1.9,0.5l-1.4,1.2l1.9,1.2l0.7,5.8l-0.4,2.2l-4.4-4.1    l-1-4.1l-0.9-1.9l2.8,0.2l-1.7-1L118.6,454.6L118.6,454.6z" />
			<path d="M123,465.9l2.6,1.7l-0.1,3.8h-0.9l-2.1-1.7l1.2-1.7v-1L123,465.9L123,465.9z M123.5,421l-0.4,14.4l6.6,4.8l-2.6,1.2l1.2,0.7    l-2.6,1.9l1,0.5l0.9,2.2l2.8,0.2l6.1,4.6l-6.6,1l0.1,4.3l1.4,0.5l-2.8,4.1l4.4,4.8l-1.2,1l1.4,2.6l-5.2,1l-0.4,1.7l0.5-2.2    l0.5-1.4l-2.5,1l0.1-2.2l-3.4-3.6l3,1.7l-2.1-2.4l2.1-1.4l-0.7-1.7l-3.6,3.1l-0.7-5.8l-1.9-1.2l1.4-1.2l-1.9-0.5h-2.5l4.4-6    l-1.4,0.7l-0.5,0.2l-0.9,0.7l-0.9-6.7l-10-3.6l-7.1-11h12.1v-7.9h11.9C123.5,421.1,123.5,421,123.5,421z" />
			<polygon points="184.5,493.2 185.2,497.8 188,497.5 189.2,499.7 178.7,499.7 179.4,497.3 178.4,494.4 180.1,493.2   " />
			<polygon points="150.4,502.3 154.4,503.3 155.3,502.1 156,504 153.7,505.2 149,503.3   " />
			<polygon points="158.6,495.1 156.9,495.4 156.9,495.8 156.2,495.8 156.7,494.2 156,495.1 155.6,493 154.2,493 154.2,490.8 154.2,490.6     153.6,490.1 152.3,489.1 152.5,488.2 153,485.3 153.2,484.8 157.2,482.2 160.2,482.4 165.5,484.1 164.6,487.4 162.5,488.4     162.1,489.8 161.7,490.8 158.8,490.8 159.3,492 157.6,493   " />
			<polygon points="196.1,481.4 195.8,484.3 193.1,486 190.8,483.4 189.2,484.8 190.6,486 190.1,487.9 185.1,486.5 184.7,484.8 182.7,484.6     176.8,488.6 177.8,485.3 176.5,484.1 180.8,480.2 181.7,474.7 185.1,473.1 186.2,472.1 188,473.3 187.3,474.3 190.1,474.5   " />
			<path d="M133.1,472.6l-3.6,4.1l0.7-2.4h1L133.1,472.6L133.1,472.6z M134.6,466.1l-0.1,1.4l2.3,0.7l0.1,1.4l1.4-0.2v2.4l2.8-0.7l2.8,1.9    l-1.7,2.2l0.5,1.4l-0.7-0.5l-2.6,4.3l-9.1,2.2l4-1.4l-4.2,0.2l3-0.7v-2.2l-0.5-1.4l-2.5,2.9l-0.7-3.1l4.2-3.4l2.8,2.9l-1.6-2.9    l1-0.5h-2.6l1.7-2.6l-0.9-1.2l0.7,1.2l-2.1,2.4l-3.4,1.7l-0.7-1l-0.1-2.6l-1.7,3.1l0.9-1.7l0.4-1.7l5.2-1l-1.4-2.6l1.2-1h1.8    L134.6,466.1L134.6,466.1z" />
			<polygon points="130.5,413.1 130,415.5 134.6,420 135,423.9 146.6,426.7 146.4,428.9 134.8,428.9 135.7,432.3 133.1,432 130.3,436.3 132.2,439.2     139,439.5 140.6,443.5 145.3,442.1 149.2,444.5 126.8,444.5 125.7,444 128.4,442.1 127.1,441.4 129.7,440.2 123.1,435.4     123.5,421 111.6,421 111.6,428.9 99.6,428.9 97.9,425.3 88.9,418.8 88.5,416.4 85.9,414.7 80.8,416.2 79.5,419.5 74.1,421.7     73.6,419.1 65.4,413.1   " />
			<polygon points="147.6,496.1 153.2,499.2 148.6,498.7 148.5,498.7 146.2,496.3 147.4,496.1   " />
			<polygon points="193.1,486 194.5,486.7 193.6,488.2 195.2,490.8 193.8,492.7 193.9,496.1 196.1,495.6 197.6,499.7 189.2,499.7 188,497.5     185.2,497.8 184.5,493.2 183.5,491.5 184.8,490.3 185.1,486.5 190.1,487.9 190.6,486 189.2,484.8 190.8,483.4   " />
			<polygon points="158.6,495.1 157.6,493 159.3,492 158.8,490.8 161.7,490.8 164.9,491.3 167.2,491.5 167.7,492 168.6,493 168.4,493.4 168.1,494.9     169.3,494.4 168.4,497 170.2,497.5 169.8,499.7 160.7,499.7 159.8,497   " />
			<polygon points="160.2,496.1 159.8,497 160.7,499.7 156.5,499.7 156,497.8 158.5,497.5 158.5,496.3 156.9,497.3 156.2,495.8 156.9,495.8     156.9,495.4 158.6,495.1   " />
			<polygon points="143.7,494.9 146.2,496.3 148.5,498.7 148.6,500.4 146.9,502.3 144.8,501.4 146.6,499.9 145,499.4 144.1,499.4 142.9,500.4     140.7,498.7 141.5,498.7 141.6,496.8 141,496.3 137.2,496.8 137.1,495.4 143.2,495.8 143.6,494.6   " />
</g>
<g id="Yukon">
		<polygon points="54.9,337.2 65,338.2 71.7,341.6 80.3,343.2 80.3,352.8 81.5,353.6 81.9,354 81.9,356.4 82,357.9     95.3,357.9 93.7,358.4 96.7,361.5 96.1,362.2 95.3,363.4 96,363.6 96.4,366 97.7,366 103.9,366.3 102.5,367 104.2,368.4     104.9,368.9 104,369.6 101.6,371.8 103.9,373.2 102.3,374.9 107.7,377.6 106.6,378.5 111.2,379.2 112.8,381.6 116.1,382.6     116.6,382.8 116.5,383.1 115.4,384 118.6,385.9 117.4,386.9 116.5,387.6 116.8,387.6 119.6,388.8 118.7,390.7 122.2,393.6     121.7,396.3 122.7,396.5 126.8,397.2 130.1,400.6 134,401.5 135.7,407.1 148.6,405.6 148.5,408 153,413.1 130.5,413.1 65.4,413.1     65.4,410.2 60.1,411.6 54.2,410.7   " />
</g>
</svg>